<?xml version="1.0" encoding="UTF-8" standalone="no"?>
<!DOCTYPE svg PUBLIC "-//W3C//DTD SVG 1.1//EN"
 "http://www.w3.org/Graphics/SVG/1.1/DTD/svg11.dtd">
<!-- Generated by graphviz version 11.0.0 (20240428.1522)
 -->
<!-- Title: model_graph Pages: 1 -->
<svg width="282pt" height="212pt"
 viewBox="0.00 0.00 281.50 211.75" xmlns="http://www.w3.org/2000/svg" xmlns:xlink="http://www.w3.org/1999/xlink">
<g id="graph0" class="graph" transform="scale(1 1) rotate(0) translate(4 207.75)">
<title>model_graph</title>
<polygon fill="white" stroke="none" points="-4,4 -4,-207.75 277.5,-207.75 277.5,4 -4,4"/>
<!-- client_models_Subscription -->
<g id="node1" class="node">
<title>client_models_Subscription</title>
<polygon fill="white" stroke="none" points="8,-85.75 8,-199.75 193,-199.75 193,-85.75 8,-85.75"/>
<polygon fill="#1b563f" stroke="none" points="9,-177.75 9,-198.75 192,-198.75 192,-177.75 9,-177.75"/>
<text text-anchor="start" x="60" y="-185.25" font-family="Roboto" font-size="8.00"> &#160;&#160;&#160;</text>
<text text-anchor="start" x="69" y="-185.25" font-family="Roboto" font-weight="bold" font-size="10.00" fill="white"> &#160;&#160;&#160;Subscription &#160;&#160;&#160;</text>
<text text-anchor="start" x="11" y="-169.15" font-family="Roboto" font-size="8.00"> &#160;&#160;&#160;</text>
<text text-anchor="start" x="20" y="-169.15" font-family="Roboto" font-weight="bold" font-size="8.00">id</text>
<text text-anchor="start" x="26.75" y="-169.15" font-family="Roboto" font-size="8.00"> &#160;&#160;&#160;</text>
<text text-anchor="start" x="115" y="-169.15" font-family="Roboto" font-size="8.00"> &#160;&#160;&#160;</text>
<text text-anchor="start" x="124" y="-169.15" font-family="Roboto" font-weight="bold" font-size="8.00">BigAutoField</text>
<text text-anchor="start" x="171.25" y="-169.15" font-family="Roboto" font-size="8.00"> &#160;&#160;&#160;</text>
<text text-anchor="start" x="11" y="-156.15" font-family="Roboto" font-size="8.00"> &#160;&#160;&#160;</text>
<text text-anchor="start" x="20" y="-156.15" font-family="Roboto" font-weight="bold" font-size="8.00">tier</text>
<text text-anchor="start" x="32.75" y="-156.15" font-family="Roboto" font-size="8.00"> &#160;&#160;&#160;</text>
<text text-anchor="start" x="115" y="-156.15" font-family="Roboto" font-size="8.00"> &#160;&#160;&#160;</text>
<text text-anchor="start" x="124" y="-156.15" font-family="Roboto" font-weight="bold" font-size="8.00">ForeignKey (id)</text>
<text text-anchor="start" x="181" y="-156.15" font-family="Roboto" font-size="8.00"> &#160;&#160;&#160;</text>
<text text-anchor="start" x="11" y="-143.15" font-family="Roboto" font-size="8.00"> &#160;&#160;&#160;</text>
<text text-anchor="start" x="20" y="-143.15" font-family="Roboto" font-weight="bold" font-size="8.00">user</text>
<text text-anchor="start" x="36.5" y="-143.15" font-family="Roboto" font-size="8.00"> &#160;&#160;&#160;</text>
<text text-anchor="start" x="115" y="-143.15" font-family="Roboto" font-size="8.00"> &#160;&#160;&#160;</text>
<text text-anchor="start" x="124" y="-143.15" font-family="Roboto" font-weight="bold" font-size="8.00">ForeignKey (id)</text>
<text text-anchor="start" x="181" y="-143.15" font-family="Roboto" font-size="8.00"> &#160;&#160;&#160;</text>
<text text-anchor="start" x="11" y="-130.15" font-family="Roboto" font-size="8.00"> &#160;&#160;&#160;</text>
<text text-anchor="start" x="20" y="-130.15" font-family="Roboto" font-size="8.00">end_date</text>
<text text-anchor="start" x="53.75" y="-130.15" font-family="Roboto" font-size="8.00"> &#160;&#160;&#160;</text>
<text text-anchor="start" x="115" y="-130.15" font-family="Roboto" font-size="8.00"> &#160;&#160;&#160;</text>
<text text-anchor="start" x="124" y="-130.15" font-family="Roboto" font-size="8.00">DateTimeField</text>
<text text-anchor="start" x="178.75" y="-130.15" font-family="Roboto" font-size="8.00"> &#160;&#160;&#160;</text>
<text text-anchor="start" x="11" y="-117.15" font-family="Roboto" font-size="8.00"> &#160;&#160;&#160;</text>
<text text-anchor="start" x="20" y="-117.15" font-family="Roboto" font-size="8.00" fill="#7b7b7b">start_date</text>
<text text-anchor="start" x="58.25" y="-117.15" font-family="Roboto" font-size="8.00"> &#160;&#160;&#160;</text>
<text text-anchor="start" x="115" y="-117.15" font-family="Roboto" font-size="8.00"> &#160;&#160;&#160;</text>
<text text-anchor="start" x="124" y="-117.15" font-family="Roboto" font-size="8.00" fill="#7b7b7b">DateTimeField</text>
<text text-anchor="start" x="178.75" y="-117.15" font-family="Roboto" font-size="8.00"> &#160;&#160;&#160;</text>
<text text-anchor="start" x="11" y="-104.15" font-family="Roboto" font-size="8.00"> &#160;&#160;&#160;</text>
<text text-anchor="start" x="20" y="-104.15" font-family="Roboto" font-size="8.00">status</text>
<text text-anchor="start" x="44" y="-104.15" font-family="Roboto" font-size="8.00"> &#160;&#160;&#160;</text>
<text text-anchor="start" x="115" y="-104.15" font-family="Roboto" font-size="8.00"> &#160;&#160;&#160;</text>
<text text-anchor="start" x="124" y="-104.15" font-family="Roboto" font-size="8.00">CharField</text>
<text text-anchor="start" x="159.25" y="-104.15" font-family="Roboto" font-size="8.00"> &#160;&#160;&#160;</text>
<text text-anchor="start" x="10.75" y="-91.15" font-family="Roboto" font-size="8.00"> &#160;&#160;&#160;</text>
<text text-anchor="start" x="19.75" y="-91.15" font-family="Roboto" font-size="8.00" fill="#7b7b7b">stripe_subscription_id</text>
<text text-anchor="start" x="102.25" y="-91.15" font-family="Roboto" font-size="8.00"> &#160;&#160;&#160;</text>
<text text-anchor="start" x="115" y="-91.15" font-family="Roboto" font-size="8.00"> &#160;&#160;&#160;</text>
<text text-anchor="start" x="124" y="-91.15" font-family="Roboto" font-size="8.00" fill="#7b7b7b">CharField</text>
<text text-anchor="start" x="159.25" y="-91.15" font-family="Roboto" font-size="8.00"> &#160;&#160;&#160;</text>
<polygon fill="none" stroke="black" points="8,-85.75 8,-199.75 193,-199.75 193,-85.75 8,-85.75"/>
</g>
<!-- account_models_CustomUser -->
<g id="node2" class="node">
<title>account_models_CustomUser</title>
<polygon fill="white" stroke="none" points="9.25,-6.88 9.25,-29.12 91.75,-29.12 91.75,-6.88 9.25,-6.88"/>
<polygon fill="#1b563f" stroke="none" points="9.25,-6.88 9.25,-29.12 91.75,-29.12 91.75,-6.88 9.25,-6.88"/>
<text text-anchor="start" x="13.75" y="-14.72" font-family="Roboto" font-size="8.00"> &#160;</text>
<text text-anchor="start" x="18.25" y="-14.72" font-family="Roboto" font-size="12.00" fill="white">CustomUser</text>
<text text-anchor="start" x="82.75" y="-14.72" font-family="Roboto" font-size="8.00"> &#160;</text>
</g>
<!-- client_models_Subscription&#45;&gt;account_models_CustomUser -->
<g id="edge1" class="edge">
<title>client_models_Subscription&#45;&gt;account_models_CustomUser</title>
<path fill="none" stroke="black" d="M55.04,-73.77C53.7,-70.45 52.51,-67.1 51.5,-63.75 48.82,-54.82 48.43,-44.43 48.78,-35.91"/>
<ellipse fill="black" stroke="black" cx="56.83" cy="-77.84" rx="4" ry="4"/>
<text text-anchor="middle" x="90.5" y="-56.15" font-family="Roboto" font-size="8.00"> user (subscriptions)</text>
</g>
<!-- creator_models_Tier -->
<g id="node3" class="node">
<title>creator_models_Tier</title>
<polygon fill="white" stroke="none" points="132.38,-6.88 132.38,-29.12 170.62,-29.12 170.62,-6.88 132.38,-6.88"/>
<polygon fill="#1b563f" stroke="none" points="132.38,-6.88 132.38,-29.12 170.62,-29.12 170.62,-6.88 132.38,-6.88"/>
<text text-anchor="start" x="136.88" y="-14.72" font-family="Roboto" font-size="8.00"> &#160;</text>
<text text-anchor="start" x="141.38" y="-14.72" font-family="Roboto" font-size="12.00" fill="white">Tier</text>
<text text-anchor="start" x="161.62" y="-14.72" font-family="Roboto" font-size="8.00"> &#160;</text>
</g>
<!-- client_models_Subscription&#45;&gt;creator_models_Tier -->
<g id="edge2" class="edge">
<title>client_models_Subscription&#45;&gt;creator_models_Tier</title>
<path fill="none" stroke="black" d="M128.69,-73.89C134.6,-59.68 140.3,-45.95 144.53,-35.77"/>
<ellipse fill="black" stroke="black" cx="127.13" cy="-77.66" rx="4" ry="4"/>
<text text-anchor="middle" x="169.25" y="-56.15" font-family="Roboto" font-size="8.00"> tier (subscribers)</text>
</g>
<!-- \n\n\n -->
<g id="node4" class="node">
<title>\n\n\n</title>
</g>
</g>
</svg>
