<?xml version="1.0" encoding="UTF-8" standalone="no"?>
<!DOCTYPE svg PUBLIC "-//W3C//DTD SVG 1.1//EN"
 "http://www.w3.org/Graphics/SVG/1.1/DTD/svg11.dtd">
<!-- Generated by graphviz version 11.0.0 (20240428.1522)
 -->
<!-- Title: model_graph Pages: 1 -->
<svg width="321pt" height="508pt"
 viewBox="0.00 0.00 321.00 508.25" xmlns="http://www.w3.org/2000/svg" xmlns:xlink="http://www.w3.org/1999/xlink">
<g id="graph0" class="graph" transform="scale(1 1) rotate(0) translate(4 504.25)">
<title>model_graph</title>
<polygon fill="white" stroke="none" points="-4,4 -4,-504.25 317,-504.25 317,4 -4,4"/>
<!-- creator_models_Tier -->
<g id="node1" class="node">
<title>creator_models_Tier</title>
<polygon fill="white" stroke="none" points="8,-85.75 8,-186.75 191,-186.75 191,-85.75 8,-85.75"/>
<polygon fill="#1b563f" stroke="none" points="9,-164.75 9,-185.75 190,-185.75 190,-164.75 9,-164.75"/>
<text text-anchor="start" x="77.38" y="-172.25" font-family="Roboto" font-size="8.00"> &#160;&#160;&#160;</text>
<text text-anchor="start" x="86.38" y="-172.25" font-family="Roboto" font-weight="bold" font-size="10.00" fill="white"> &#160;&#160;&#160;Tier &#160;&#160;&#160;</text>
<text text-anchor="start" x="11" y="-156.15" font-family="Roboto" font-size="8.00"> &#160;&#160;&#160;</text>
<text text-anchor="start" x="20" y="-156.15" font-family="Roboto" font-weight="bold" font-size="8.00">id</text>
<text text-anchor="start" x="26.75" y="-156.15" font-family="Roboto" font-size="8.00"> &#160;&#160;&#160;</text>
<text text-anchor="start" x="113" y="-156.15" font-family="Roboto" font-size="8.00"> &#160;&#160;&#160;</text>
<text text-anchor="start" x="122" y="-156.15" font-family="Roboto" font-weight="bold" font-size="8.00">BigAutoField</text>
<text text-anchor="start" x="169.25" y="-156.15" font-family="Roboto" font-size="8.00"> &#160;&#160;&#160;</text>
<text text-anchor="start" x="11" y="-143.15" font-family="Roboto" font-size="8.00"> &#160;&#160;&#160;</text>
<text text-anchor="start" x="20" y="-143.15" font-family="Roboto" font-weight="bold" font-size="8.00">user</text>
<text text-anchor="start" x="36.5" y="-143.15" font-family="Roboto" font-size="8.00"> &#160;&#160;&#160;</text>
<text text-anchor="start" x="113" y="-143.15" font-family="Roboto" font-size="8.00"> &#160;&#160;&#160;</text>
<text text-anchor="start" x="122" y="-143.15" font-family="Roboto" font-weight="bold" font-size="8.00">ForeignKey (id)</text>
<text text-anchor="start" x="179" y="-143.15" font-family="Roboto" font-size="8.00"> &#160;&#160;&#160;</text>
<text text-anchor="start" x="11" y="-130.15" font-family="Roboto" font-size="8.00"> &#160;&#160;&#160;</text>
<text text-anchor="start" x="20" y="-130.15" font-family="Roboto" font-size="8.00">description</text>
<text text-anchor="start" x="62" y="-130.15" font-family="Roboto" font-size="8.00"> &#160;&#160;&#160;</text>
<text text-anchor="start" x="113" y="-130.15" font-family="Roboto" font-size="8.00"> &#160;&#160;&#160;</text>
<text text-anchor="start" x="122" y="-130.15" font-family="Roboto" font-size="8.00">TextField</text>
<text text-anchor="start" x="156.5" y="-130.15" font-family="Roboto" font-size="8.00"> &#160;&#160;&#160;</text>
<text text-anchor="start" x="10.88" y="-117.15" font-family="Roboto" font-size="8.00"> &#160;&#160;&#160;</text>
<text text-anchor="start" x="19.88" y="-117.15" font-family="Roboto" font-size="8.00">message_permission</text>
<text text-anchor="start" x="100.12" y="-117.15" font-family="Roboto" font-size="8.00"> &#160;&#160;&#160;</text>
<text text-anchor="start" x="113" y="-117.15" font-family="Roboto" font-size="8.00"> &#160;&#160;&#160;</text>
<text text-anchor="start" x="122" y="-117.15" font-family="Roboto" font-size="8.00">BooleanField</text>
<text text-anchor="start" x="170" y="-117.15" font-family="Roboto" font-size="8.00"> &#160;&#160;&#160;</text>
<text text-anchor="start" x="11" y="-104.15" font-family="Roboto" font-size="8.00"> &#160;&#160;&#160;</text>
<text text-anchor="start" x="20" y="-104.15" font-family="Roboto" font-size="8.00">name</text>
<text text-anchor="start" x="41" y="-104.15" font-family="Roboto" font-size="8.00"> &#160;&#160;&#160;</text>
<text text-anchor="start" x="113" y="-104.15" font-family="Roboto" font-size="8.00"> &#160;&#160;&#160;</text>
<text text-anchor="start" x="122" y="-104.15" font-family="Roboto" font-size="8.00">CharField</text>
<text text-anchor="start" x="157.25" y="-104.15" font-family="Roboto" font-size="8.00"> &#160;&#160;&#160;</text>
<text text-anchor="start" x="11" y="-91.15" font-family="Roboto" font-size="8.00"> &#160;&#160;&#160;</text>
<text text-anchor="start" x="20" y="-91.15" font-family="Roboto" font-size="8.00">points_price</text>
<text text-anchor="start" x="65.75" y="-91.15" font-family="Roboto" font-size="8.00"> &#160;&#160;&#160;</text>
<text text-anchor="start" x="113" y="-91.15" font-family="Roboto" font-size="8.00"> &#160;&#160;&#160;</text>
<text text-anchor="start" x="122" y="-91.15" font-family="Roboto" font-size="8.00">IntegerField</text>
<text text-anchor="start" x="166.25" y="-91.15" font-family="Roboto" font-size="8.00"> &#160;&#160;&#160;</text>
<polygon fill="none" stroke="black" points="8,-85.75 8,-186.75 191,-186.75 191,-85.75 8,-85.75"/>
</g>
<!-- account_models_CustomUser -->
<g id="node4" class="node">
<title>account_models_CustomUser</title>
<polygon fill="white" stroke="none" points="126.25,-6.88 126.25,-29.12 208.75,-29.12 208.75,-6.88 126.25,-6.88"/>
<polygon fill="#1b563f" stroke="none" points="126.25,-6.88 126.25,-29.12 208.75,-29.12 208.75,-6.88 126.25,-6.88"/>
<text text-anchor="start" x="130.75" y="-14.72" font-family="Roboto" font-size="8.00"> &#160;</text>
<text text-anchor="start" x="135.25" y="-14.72" font-family="Roboto" font-size="12.00" fill="white">CustomUser</text>
<text text-anchor="start" x="199.75" y="-14.72" font-family="Roboto" font-size="8.00"> &#160;</text>
</g>
<!-- creator_models_Tier&#45;&gt;account_models_CustomUser -->
<g id="edge1" class="edge">
<title>creator_models_Tier&#45;&gt;account_models_CustomUser</title>
<path fill="none" stroke="black" d="M135.08,-74.43C143.42,-60.17 151.63,-46.12 157.71,-35.74"/>
<ellipse fill="black" stroke="black" cx="132.99" cy="-78" rx="4" ry="4"/>
<text text-anchor="middle" x="167.62" y="-56.15" font-family="Roboto" font-size="8.00"> user (tiers)</text>
</g>
<!-- creator_models_Post -->
<g id="node2" class="node">
<title>creator_models_Post</title>
<polygon fill="white" stroke="none" points="166,-240.5 166,-354.5 305,-354.5 305,-240.5 166,-240.5"/>
<polygon fill="#1b563f" stroke="none" points="167,-332.5 167,-353.5 304,-353.5 304,-332.5 167,-332.5"/>
<text text-anchor="start" x="212.25" y="-340" font-family="Roboto" font-size="8.00"> &#160;&#160;&#160;</text>
<text text-anchor="start" x="221.25" y="-340" font-family="Roboto" font-weight="bold" font-size="10.00" fill="white"> &#160;&#160;&#160;Post &#160;&#160;&#160;</text>
<text text-anchor="start" x="169" y="-323.9" font-family="Roboto" font-size="8.00"> &#160;&#160;&#160;</text>
<text text-anchor="start" x="178" y="-323.9" font-family="Roboto" font-weight="bold" font-size="8.00">id</text>
<text text-anchor="start" x="184.75" y="-323.9" font-family="Roboto" font-size="8.00"> &#160;&#160;&#160;</text>
<text text-anchor="start" x="227" y="-323.9" font-family="Roboto" font-size="8.00"> &#160;&#160;&#160;</text>
<text text-anchor="start" x="236" y="-323.9" font-family="Roboto" font-weight="bold" font-size="8.00">BigAutoField</text>
<text text-anchor="start" x="283.25" y="-323.9" font-family="Roboto" font-size="8.00"> &#160;&#160;&#160;</text>
<text text-anchor="start" x="169" y="-310.9" font-family="Roboto" font-size="8.00"> &#160;&#160;&#160;</text>
<text text-anchor="start" x="178" y="-310.9" font-family="Roboto" font-weight="bold" font-size="8.00">tier</text>
<text text-anchor="start" x="190.75" y="-310.9" font-family="Roboto" font-size="8.00"> &#160;&#160;&#160;</text>
<text text-anchor="start" x="227" y="-310.9" font-family="Roboto" font-size="8.00"> &#160;&#160;&#160;</text>
<text text-anchor="start" x="236" y="-310.9" font-family="Roboto" font-weight="bold" font-size="8.00">ForeignKey (id)</text>
<text text-anchor="start" x="293" y="-310.9" font-family="Roboto" font-size="8.00"> &#160;&#160;&#160;</text>
<text text-anchor="start" x="169" y="-297.9" font-family="Roboto" font-size="8.00"> &#160;&#160;&#160;</text>
<text text-anchor="start" x="178" y="-297.9" font-family="Roboto" font-weight="bold" font-size="8.00">user</text>
<text text-anchor="start" x="194.5" y="-297.9" font-family="Roboto" font-size="8.00"> &#160;&#160;&#160;</text>
<text text-anchor="start" x="227" y="-297.9" font-family="Roboto" font-size="8.00"> &#160;&#160;&#160;</text>
<text text-anchor="start" x="236" y="-297.9" font-family="Roboto" font-weight="bold" font-size="8.00">ForeignKey (id)</text>
<text text-anchor="start" x="293" y="-297.9" font-family="Roboto" font-size="8.00"> &#160;&#160;&#160;</text>
<text text-anchor="start" x="169" y="-284.9" font-family="Roboto" font-size="8.00"> &#160;&#160;&#160;</text>
<text text-anchor="start" x="178" y="-284.9" font-family="Roboto" font-size="8.00">is_free</text>
<text text-anchor="start" x="203.5" y="-284.9" font-family="Roboto" font-size="8.00"> &#160;&#160;&#160;</text>
<text text-anchor="start" x="227" y="-284.9" font-family="Roboto" font-size="8.00"> &#160;&#160;&#160;</text>
<text text-anchor="start" x="236" y="-284.9" font-family="Roboto" font-size="8.00">BooleanField</text>
<text text-anchor="start" x="284" y="-284.9" font-family="Roboto" font-size="8.00"> &#160;&#160;&#160;</text>
<text text-anchor="start" x="168.62" y="-271.9" font-family="Roboto" font-size="8.00"> &#160;&#160;&#160;</text>
<text text-anchor="start" x="177.62" y="-271.9" font-family="Roboto" font-size="8.00" fill="#7b7b7b">posted_at</text>
<text text-anchor="start" x="214.38" y="-271.9" font-family="Roboto" font-size="8.00"> &#160;&#160;&#160;</text>
<text text-anchor="start" x="227" y="-271.9" font-family="Roboto" font-size="8.00"> &#160;&#160;&#160;</text>
<text text-anchor="start" x="236" y="-271.9" font-family="Roboto" font-size="8.00" fill="#7b7b7b">DateTimeField</text>
<text text-anchor="start" x="290.75" y="-271.9" font-family="Roboto" font-size="8.00"> &#160;&#160;&#160;</text>
<text text-anchor="start" x="169" y="-258.9" font-family="Roboto" font-size="8.00"> &#160;&#160;&#160;</text>
<text text-anchor="start" x="178" y="-258.9" font-family="Roboto" font-size="8.00">text</text>
<text text-anchor="start" x="192.25" y="-258.9" font-family="Roboto" font-size="8.00"> &#160;&#160;&#160;</text>
<text text-anchor="start" x="227" y="-258.9" font-family="Roboto" font-size="8.00"> &#160;&#160;&#160;</text>
<text text-anchor="start" x="236" y="-258.9" font-family="Roboto" font-size="8.00">TextField</text>
<text text-anchor="start" x="270.5" y="-258.9" font-family="Roboto" font-size="8.00"> &#160;&#160;&#160;</text>
<text text-anchor="start" x="169" y="-245.9" font-family="Roboto" font-size="8.00"> &#160;&#160;&#160;</text>
<text text-anchor="start" x="178" y="-245.9" font-family="Roboto" font-size="8.00">title</text>
<text text-anchor="start" x="193" y="-245.9" font-family="Roboto" font-size="8.00"> &#160;&#160;&#160;</text>
<text text-anchor="start" x="227" y="-245.9" font-family="Roboto" font-size="8.00"> &#160;&#160;&#160;</text>
<text text-anchor="start" x="236" y="-245.9" font-family="Roboto" font-size="8.00">CharField</text>
<text text-anchor="start" x="271.25" y="-245.9" font-family="Roboto" font-size="8.00"> &#160;&#160;&#160;</text>
<polygon fill="none" stroke="black" points="166,-240.5 166,-354.5 305,-354.5 305,-240.5 166,-240.5"/>
</g>
<!-- creator_models_Post&#45;&gt;creator_models_Tier -->
<g id="edge2" class="edge">
<title>creator_models_Post&#45;&gt;creator_models_Tier</title>
<path fill="none" stroke="black" d="M178.65,-229.93C167.42,-216.79 155.78,-203.16 145,-190.52"/>
<ellipse fill="black" stroke="black" cx="181.55" cy="-233.33" rx="4" ry="4"/>
<text text-anchor="middle" x="187.38" y="-210.9" font-family="Roboto" font-size="8.00"> tier (post)</text>
</g>
<!-- creator_models_Post&#45;&gt;account_models_CustomUser -->
<g id="edge3" class="edge">
<title>creator_models_Post&#45;&gt;account_models_CustomUser</title>
<path fill="none" stroke="black" d="M233.33,-227.96C230.41,-185.08 223.71,-129.19 208.5,-81.75 203.02,-64.65 191.53,-47.75 182.11,-35.81"/>
<ellipse fill="black" stroke="black" cx="233.61" cy="-232.41" rx="4" ry="4"/>
<text text-anchor="middle" x="263.62" y="-133.53" font-family="Roboto" font-size="8.00"> user (user_posts)</text>
</g>
<!-- creator_models_Media -->
<g id="node3" class="node">
<title>creator_models_Media</title>
<polygon fill="white" stroke="none" points="50,-408.25 50,-496.25 169,-496.25 169,-408.25 50,-408.25"/>
<polygon fill="#1b563f" stroke="none" points="51,-474.25 51,-495.25 168,-495.25 168,-474.25 51,-474.25"/>
<text text-anchor="start" x="82.88" y="-481.75" font-family="Roboto" font-size="8.00"> &#160;&#160;&#160;</text>
<text text-anchor="start" x="91.88" y="-481.75" font-family="Roboto" font-weight="bold" font-size="10.00" fill="white"> &#160;&#160;&#160;Media &#160;&#160;&#160;</text>
<text text-anchor="start" x="53" y="-465.65" font-family="Roboto" font-size="8.00"> &#160;&#160;&#160;</text>
<text text-anchor="start" x="62" y="-465.65" font-family="Roboto" font-weight="bold" font-size="8.00">id</text>
<text text-anchor="start" x="68.75" y="-465.65" font-family="Roboto" font-size="8.00"> &#160;&#160;&#160;</text>
<text text-anchor="start" x="91" y="-465.65" font-family="Roboto" font-size="8.00"> &#160;&#160;&#160;</text>
<text text-anchor="start" x="100" y="-465.65" font-family="Roboto" font-weight="bold" font-size="8.00">BigAutoField</text>
<text text-anchor="start" x="147.25" y="-465.65" font-family="Roboto" font-size="8.00"> &#160;&#160;&#160;</text>
<text text-anchor="start" x="52.75" y="-452.65" font-family="Roboto" font-size="8.00"> &#160;&#160;&#160;</text>
<text text-anchor="start" x="61.75" y="-452.65" font-family="Roboto" font-weight="bold" font-size="8.00">post</text>
<text text-anchor="start" x="78.25" y="-452.65" font-family="Roboto" font-size="8.00"> &#160;&#160;&#160;</text>
<text text-anchor="start" x="91" y="-452.65" font-family="Roboto" font-size="8.00"> &#160;&#160;&#160;</text>
<text text-anchor="start" x="100" y="-452.65" font-family="Roboto" font-weight="bold" font-size="8.00">ForeignKey (id)</text>
<text text-anchor="start" x="157" y="-452.65" font-family="Roboto" font-size="8.00"> &#160;&#160;&#160;</text>
<text text-anchor="start" x="53" y="-439.65" font-family="Roboto" font-size="8.00"> &#160;&#160;&#160;</text>
<text text-anchor="start" x="62" y="-439.65" font-family="Roboto" font-weight="bold" font-size="8.00">tier</text>
<text text-anchor="start" x="74.75" y="-439.65" font-family="Roboto" font-size="8.00"> &#160;&#160;&#160;</text>
<text text-anchor="start" x="91" y="-439.65" font-family="Roboto" font-size="8.00"> &#160;&#160;&#160;</text>
<text text-anchor="start" x="100" y="-439.65" font-family="Roboto" font-weight="bold" font-size="8.00">ForeignKey (id)</text>
<text text-anchor="start" x="157" y="-439.65" font-family="Roboto" font-size="8.00"> &#160;&#160;&#160;</text>
<text text-anchor="start" x="53" y="-426.65" font-family="Roboto" font-size="8.00"> &#160;&#160;&#160;</text>
<text text-anchor="start" x="62" y="-426.65" font-family="Roboto" font-size="8.00">file</text>
<text text-anchor="start" x="74" y="-426.65" font-family="Roboto" font-size="8.00"> &#160;&#160;&#160;</text>
<text text-anchor="start" x="91" y="-426.65" font-family="Roboto" font-size="8.00"> &#160;&#160;&#160;</text>
<text text-anchor="start" x="100" y="-426.65" font-family="Roboto" font-size="8.00">FileField</text>
<text text-anchor="start" x="131.5" y="-426.65" font-family="Roboto" font-size="8.00"> &#160;&#160;&#160;</text>
<text text-anchor="start" x="53" y="-413.65" font-family="Roboto" font-size="8.00"> &#160;&#160;&#160;</text>
<text text-anchor="start" x="62" y="-413.65" font-family="Roboto" font-size="8.00">type</text>
<text text-anchor="start" x="77.75" y="-413.65" font-family="Roboto" font-size="8.00"> &#160;&#160;&#160;</text>
<text text-anchor="start" x="91" y="-413.65" font-family="Roboto" font-size="8.00"> &#160;&#160;&#160;</text>
<text text-anchor="start" x="100" y="-413.65" font-family="Roboto" font-size="8.00">CharField</text>
<text text-anchor="start" x="135.25" y="-413.65" font-family="Roboto" font-size="8.00"> &#160;&#160;&#160;</text>
<polygon fill="none" stroke="black" points="50,-408.25 50,-496.25 169,-496.25 169,-408.25 50,-408.25"/>
</g>
<!-- creator_models_Media&#45;&gt;creator_models_Tier -->
<g id="edge5" class="edge">
<title>creator_models_Media&#45;&gt;creator_models_Tier</title>
<path fill="none" stroke="black" d="M105.12,-395.78C104.29,-383.51 103.52,-370.57 103,-358.5 100.54,-301.12 99.76,-235.3 99.53,-190.47"/>
<ellipse fill="black" stroke="black" cx="105.42" cy="-400.08" rx="4" ry="4"/>
<text text-anchor="middle" x="125.75" y="-294.77" font-family="Roboto" font-size="8.00"> tier (media)</text>
</g>
<!-- creator_models_Media&#45;&gt;creator_models_Post -->
<g id="edge4" class="edge">
<title>creator_models_Media&#45;&gt;creator_models_Post</title>
<path fill="none" stroke="black" d="M153.72,-397.65C164.18,-384.96 175.4,-371.36 186.08,-358.41"/>
<ellipse fill="black" stroke="black" cx="150.85" cy="-401.12" rx="4" ry="4"/>
<text text-anchor="middle" x="193.62" y="-378.65" font-family="Roboto" font-size="8.00"> post (media)</text>
</g>
<!-- \n\n\n -->
<g id="node5" class="node">
<title>\n\n\n</title>
</g>
</g>
</svg>
