<?xml version="1.0" encoding="UTF-8" standalone="no"?>
<!DOCTYPE svg PUBLIC "-//W3C//DTD SVG 1.1//EN"
 "http://www.w3.org/Graphics/SVG/1.1/DTD/svg11.dtd">
<!-- Generated by graphviz version 11.0.0 (20240428.1522)
 -->
<!-- Title: model_graph Pages: 1 -->
<svg width="423pt" height="199pt"
 viewBox="0.00 0.00 422.50 198.75" xmlns="http://www.w3.org/2000/svg" xmlns:xlink="http://www.w3.org/1999/xlink">
<g id="graph0" class="graph" transform="scale(1 1) rotate(0) translate(4 194.75)">
<title>model_graph</title>
<polygon fill="white" stroke="none" points="-4,4 -4,-194.75 418.5,-194.75 418.5,4 -4,4"/>
<!-- finances_models_Wallet -->
<g id="node1" class="node">
<title>finances_models_Wallet</title>
<polygon fill="white" stroke="none" points="8,-105.25 8,-167.25 155,-167.25 155,-105.25 8,-105.25"/>
<polygon fill="#1b563f" stroke="none" points="9,-145.25 9,-166.25 154,-166.25 154,-145.25 9,-145.25"/>
<text text-anchor="start" x="54.88" y="-152.75" font-family="Roboto" font-size="8.00"> &#160;&#160;&#160;</text>
<text text-anchor="start" x="63.88" y="-152.75" font-family="Roboto" font-weight="bold" font-size="10.00" fill="white"> &#160;&#160;&#160;Wallet &#160;&#160;&#160;</text>
<text text-anchor="start" x="11" y="-136.65" font-family="Roboto" font-size="8.00"> &#160;&#160;&#160;</text>
<text text-anchor="start" x="20" y="-136.65" font-family="Roboto" font-weight="bold" font-size="8.00">id</text>
<text text-anchor="start" x="26.75" y="-136.65" font-family="Roboto" font-size="8.00"> &#160;&#160;&#160;</text>
<text text-anchor="start" x="62" y="-136.65" font-family="Roboto" font-size="8.00"> &#160;&#160;&#160;</text>
<text text-anchor="start" x="71" y="-136.65" font-family="Roboto" font-weight="bold" font-size="8.00">BigAutoField</text>
<text text-anchor="start" x="118.25" y="-136.65" font-family="Roboto" font-size="8.00"> &#160;&#160;&#160;</text>
<text text-anchor="start" x="11" y="-123.65" font-family="Roboto" font-size="8.00"> &#160;&#160;&#160;</text>
<text text-anchor="start" x="20" y="-123.65" font-family="Roboto" font-weight="bold" font-size="8.00">user</text>
<text text-anchor="start" x="36.5" y="-123.65" font-family="Roboto" font-size="8.00"> &#160;&#160;&#160;</text>
<text text-anchor="start" x="61.62" y="-123.65" font-family="Roboto" font-size="8.00"> &#160;&#160;&#160;</text>
<text text-anchor="start" x="70.62" y="-123.65" font-family="Roboto" font-weight="bold" font-size="8.00">OneToOneField (id)</text>
<text text-anchor="start" x="143.38" y="-123.65" font-family="Roboto" font-size="8.00"> &#160;&#160;&#160;</text>
<text text-anchor="start" x="10.88" y="-110.65" font-family="Roboto" font-size="8.00"> &#160;&#160;&#160;</text>
<text text-anchor="start" x="19.88" y="-110.65" font-family="Roboto" font-size="8.00">balance</text>
<text text-anchor="start" x="49.12" y="-110.65" font-family="Roboto" font-size="8.00"> &#160;&#160;&#160;</text>
<text text-anchor="start" x="62" y="-110.65" font-family="Roboto" font-size="8.00"> &#160;&#160;&#160;</text>
<text text-anchor="start" x="71" y="-110.65" font-family="Roboto" font-size="8.00">IntegerField</text>
<text text-anchor="start" x="115.25" y="-110.65" font-family="Roboto" font-size="8.00"> &#160;&#160;&#160;</text>
<polygon fill="none" stroke="black" points="8,-105.25 8,-167.25 155,-167.25 155,-105.25 8,-105.25"/>
</g>
<!-- account_models_CustomUser -->
<g id="node3" class="node">
<title>account_models_CustomUser</title>
<polygon fill="white" stroke="none" points="130.25,-6.88 130.25,-29.12 212.75,-29.12 212.75,-6.88 130.25,-6.88"/>
<polygon fill="#1b563f" stroke="none" points="130.25,-6.88 130.25,-29.12 212.75,-29.12 212.75,-6.88 130.25,-6.88"/>
<text text-anchor="start" x="134.75" y="-14.72" font-family="Roboto" font-size="8.00"> &#160;</text>
<text text-anchor="start" x="139.25" y="-14.72" font-family="Roboto" font-size="12.00" fill="white">CustomUser</text>
<text text-anchor="start" x="203.75" y="-14.72" font-family="Roboto" font-size="8.00"> &#160;</text>
</g>
<!-- finances_models_Wallet&#45;&gt;account_models_CustomUser -->
<g id="edge1" class="edge">
<title>finances_models_Wallet&#45;&gt;account_models_CustomUser</title>
<path fill="none" stroke="black" d="M107.77,-101.31C124.38,-79.87 145.12,-53.08 158.34,-36"/>
<text text-anchor="middle" x="167.25" y="-56.15" font-family="Roboto" font-size="8.00"> user (wallet)</text>
</g>
<!-- finances_models_Transaction -->
<g id="node2" class="node">
<title>finances_models_Transaction</title>
<polygon fill="white" stroke="none" points="189,-85.75 189,-186.75 334,-186.75 334,-85.75 189,-85.75"/>
<polygon fill="#1b563f" stroke="none" points="190,-164.75 190,-185.75 333,-185.75 333,-164.75 190,-164.75"/>
<text text-anchor="start" x="222.12" y="-172.25" font-family="Roboto" font-size="8.00"> &#160;&#160;&#160;</text>
<text text-anchor="start" x="231.12" y="-172.25" font-family="Roboto" font-weight="bold" font-size="10.00" fill="white"> &#160;&#160;&#160;Transaction &#160;&#160;&#160;</text>
<text text-anchor="start" x="192" y="-156.15" font-family="Roboto" font-size="8.00"> &#160;&#160;&#160;</text>
<text text-anchor="start" x="201" y="-156.15" font-family="Roboto" font-weight="bold" font-size="8.00">id</text>
<text text-anchor="start" x="207.75" y="-156.15" font-family="Roboto" font-size="8.00"> &#160;&#160;&#160;</text>
<text text-anchor="start" x="256" y="-156.15" font-family="Roboto" font-size="8.00"> &#160;&#160;&#160;</text>
<text text-anchor="start" x="265" y="-156.15" font-family="Roboto" font-weight="bold" font-size="8.00">BigAutoField</text>
<text text-anchor="start" x="312.25" y="-156.15" font-family="Roboto" font-size="8.00"> &#160;&#160;&#160;</text>
<text text-anchor="start" x="192" y="-143.15" font-family="Roboto" font-size="8.00"> &#160;&#160;&#160;</text>
<text text-anchor="start" x="201" y="-143.15" font-family="Roboto" font-weight="bold" font-size="8.00">user</text>
<text text-anchor="start" x="217.5" y="-143.15" font-family="Roboto" font-size="8.00"> &#160;&#160;&#160;</text>
<text text-anchor="start" x="256" y="-143.15" font-family="Roboto" font-size="8.00"> &#160;&#160;&#160;</text>
<text text-anchor="start" x="265" y="-143.15" font-family="Roboto" font-weight="bold" font-size="8.00">ForeignKey (id)</text>
<text text-anchor="start" x="322" y="-143.15" font-family="Roboto" font-size="8.00"> &#160;&#160;&#160;</text>
<text text-anchor="start" x="192" y="-130.15" font-family="Roboto" font-size="8.00"> &#160;&#160;&#160;</text>
<text text-anchor="start" x="201" y="-130.15" font-family="Roboto" font-size="8.00">amount</text>
<text text-anchor="start" x="229.5" y="-130.15" font-family="Roboto" font-size="8.00"> &#160;&#160;&#160;</text>
<text text-anchor="start" x="256" y="-130.15" font-family="Roboto" font-size="8.00"> &#160;&#160;&#160;</text>
<text text-anchor="start" x="265" y="-130.15" font-family="Roboto" font-size="8.00">DecimalField</text>
<text text-anchor="start" x="313.75" y="-130.15" font-family="Roboto" font-size="8.00"> &#160;&#160;&#160;</text>
<text text-anchor="start" x="192" y="-117.15" font-family="Roboto" font-size="8.00"> &#160;&#160;&#160;</text>
<text text-anchor="start" x="201" y="-117.15" font-family="Roboto" font-size="8.00" fill="#7b7b7b">description</text>
<text text-anchor="start" x="243" y="-117.15" font-family="Roboto" font-size="8.00"> &#160;&#160;&#160;</text>
<text text-anchor="start" x="256" y="-117.15" font-family="Roboto" font-size="8.00"> &#160;&#160;&#160;</text>
<text text-anchor="start" x="265" y="-117.15" font-family="Roboto" font-size="8.00" fill="#7b7b7b">TextField</text>
<text text-anchor="start" x="299.5" y="-117.15" font-family="Roboto" font-size="8.00"> &#160;&#160;&#160;</text>
<text text-anchor="start" x="192" y="-104.15" font-family="Roboto" font-size="8.00"> &#160;&#160;&#160;</text>
<text text-anchor="start" x="201" y="-104.15" font-family="Roboto" font-size="8.00" fill="#7b7b7b">timestamp</text>
<text text-anchor="start" x="242.25" y="-104.15" font-family="Roboto" font-size="8.00"> &#160;&#160;&#160;</text>
<text text-anchor="start" x="256" y="-104.15" font-family="Roboto" font-size="8.00"> &#160;&#160;&#160;</text>
<text text-anchor="start" x="265" y="-104.15" font-family="Roboto" font-size="8.00" fill="#7b7b7b">DateTimeField</text>
<text text-anchor="start" x="319.75" y="-104.15" font-family="Roboto" font-size="8.00"> &#160;&#160;&#160;</text>
<text text-anchor="start" x="192" y="-91.15" font-family="Roboto" font-size="8.00"> &#160;&#160;&#160;</text>
<text text-anchor="start" x="201" y="-91.15" font-family="Roboto" font-size="8.00">type</text>
<text text-anchor="start" x="216.75" y="-91.15" font-family="Roboto" font-size="8.00"> &#160;&#160;&#160;</text>
<text text-anchor="start" x="256" y="-91.15" font-family="Roboto" font-size="8.00"> &#160;&#160;&#160;</text>
<text text-anchor="start" x="265" y="-91.15" font-family="Roboto" font-size="8.00">CharField</text>
<text text-anchor="start" x="300.25" y="-91.15" font-family="Roboto" font-size="8.00"> &#160;&#160;&#160;</text>
<polygon fill="none" stroke="black" points="189,-85.75 189,-186.75 334,-186.75 334,-85.75 189,-85.75"/>
</g>
<!-- finances_models_Transaction&#45;&gt;account_models_CustomUser -->
<g id="edge2" class="edge">
<title>finances_models_Transaction&#45;&gt;account_models_CustomUser</title>
<path fill="none" stroke="black" d="M214.72,-74.82C203.57,-60.43 192.57,-46.22 184.46,-35.74"/>
<ellipse fill="black" stroke="black" cx="217.43" cy="-78.33" rx="4" ry="4"/>
<text text-anchor="middle" x="242.62" y="-56.15" font-family="Roboto" font-size="8.00"> user (transactions)</text>
</g>
<!-- \n\n\n -->
<g id="node4" class="node">
<title>\n\n\n</title>
</g>
</g>
</svg>
