<?xml version="1.0" encoding="UTF-8" standalone="no"?>
<!DOCTYPE svg PUBLIC "-//W3C//DTD SVG 1.1//EN"
 "http://www.w3.org/Graphics/SVG/1.1/DTD/svg11.dtd">
<!-- Generated by graphviz version 11.0.0 (20240428.1522)
 -->
<!-- Title: model_graph Pages: 1 -->
<svg width="616pt" height="328pt"
 viewBox="0.00 0.00 616.00 327.50" xmlns="http://www.w3.org/2000/svg" xmlns:xlink="http://www.w3.org/1999/xlink">
<g id="graph0" class="graph" transform="scale(1 1) rotate(0) translate(4 323.5)">
<title>model_graph</title>
<polygon fill="white" stroke="none" points="-4,4 -4,-323.5 612,-323.5 612,4 -4,4"/>
<!-- interactions_models_Thread -->
<g id="node1" class="node">
<title>interactions_models_Thread</title>
<polygon fill="white" stroke="none" points="8,-111.75 8,-147.75 107,-147.75 107,-111.75 8,-111.75"/>
<polygon fill="#1b563f" stroke="none" points="9,-125.75 9,-146.75 106,-146.75 106,-125.75 9,-125.75"/>
<text text-anchor="start" x="28.62" y="-133.25" font-family="Roboto" font-size="8.00"> &#160;&#160;&#160;</text>
<text text-anchor="start" x="37.62" y="-133.25" font-family="Roboto" font-weight="bold" font-size="10.00" fill="white"> &#160;&#160;&#160;Thread &#160;&#160;&#160;</text>
<text text-anchor="start" x="10.62" y="-117.15" font-family="Roboto" font-size="8.00"> &#160;&#160;&#160;</text>
<text text-anchor="start" x="19.62" y="-117.15" font-family="Roboto" font-weight="bold" font-size="8.00">id</text>
<text text-anchor="start" x="26.38" y="-117.15" font-family="Roboto" font-size="8.00"> &#160;&#160;&#160;</text>
<text text-anchor="start" x="38.88" y="-117.15" font-family="Roboto" font-size="8.00"> &#160;&#160;&#160;</text>
<text text-anchor="start" x="47.88" y="-117.15" font-family="Roboto" font-weight="bold" font-size="8.00">BigAutoField</text>
<text text-anchor="start" x="95.12" y="-117.15" font-family="Roboto" font-size="8.00"> &#160;&#160;&#160;</text>
<polygon fill="none" stroke="black" points="8,-111.75 8,-147.75 107,-147.75 107,-111.75 8,-111.75"/>
</g>
<!-- account_models_CustomUser -->
<g id="node5" class="node">
<title>account_models_CustomUser</title>
<polygon fill="white" stroke="none" points="191.25,-6.88 191.25,-29.12 273.75,-29.12 273.75,-6.88 191.25,-6.88"/>
<polygon fill="#1b563f" stroke="none" points="191.25,-6.88 191.25,-29.12 273.75,-29.12 273.75,-6.88 191.25,-6.88"/>
<text text-anchor="start" x="195.75" y="-14.72" font-family="Roboto" font-size="8.00"> &#160;</text>
<text text-anchor="start" x="200.25" y="-14.72" font-family="Roboto" font-size="12.00" fill="white">CustomUser</text>
<text text-anchor="start" x="264.75" y="-14.72" font-family="Roboto" font-size="8.00"> &#160;</text>
</g>
<!-- interactions_models_Thread&#45;&gt;account_models_CustomUser -->
<g id="edge1" class="edge">
<title>interactions_models_Thread&#45;&gt;account_models_CustomUser</title>
<path fill="none" stroke="black" d="M48.28,-99.44C45.43,-84.28 45.3,-66.41 55.5,-54 70.46,-35.79 128.98,-26.9 174.69,-22.66"/>
<ellipse fill="black" stroke="black" cx="49.23" cy="-103.6" rx="4" ry="4"/>
<ellipse fill="black" stroke="black" cx="179.16" cy="-22.26" rx="4" ry="4"/>
<text text-anchor="middle" x="97.5" y="-56.15" font-family="Roboto" font-size="8.00"> participants (threads)</text>
</g>
<!-- interactions_models_Message -->
<g id="node2" class="node">
<title>interactions_models_Message</title>
<polygon fill="white" stroke="none" points="41.5,-227.5 41.5,-315.5 171.5,-315.5 171.5,-227.5 41.5,-227.5"/>
<polygon fill="#1b563f" stroke="none" points="42.5,-293.5 42.5,-314.5 170.5,-314.5 170.5,-293.5 42.5,-293.5"/>
<text text-anchor="start" x="73.12" y="-301" font-family="Roboto" font-size="8.00"> &#160;&#160;&#160;</text>
<text text-anchor="start" x="82.12" y="-301" font-family="Roboto" font-weight="bold" font-size="10.00" fill="white"> &#160;&#160;&#160;Message &#160;&#160;&#160;</text>
<text text-anchor="start" x="44.5" y="-284.9" font-family="Roboto" font-size="8.00"> &#160;&#160;&#160;</text>
<text text-anchor="start" x="53.5" y="-284.9" font-family="Roboto" font-weight="bold" font-size="8.00">id</text>
<text text-anchor="start" x="60.25" y="-284.9" font-family="Roboto" font-size="8.00"> &#160;&#160;&#160;</text>
<text text-anchor="start" x="93.5" y="-284.9" font-family="Roboto" font-size="8.00"> &#160;&#160;&#160;</text>
<text text-anchor="start" x="102.5" y="-284.9" font-family="Roboto" font-weight="bold" font-size="8.00">BigAutoField</text>
<text text-anchor="start" x="149.75" y="-284.9" font-family="Roboto" font-size="8.00"> &#160;&#160;&#160;</text>
<text text-anchor="start" x="44.5" y="-271.9" font-family="Roboto" font-size="8.00"> &#160;&#160;&#160;</text>
<text text-anchor="start" x="53.5" y="-271.9" font-family="Roboto" font-weight="bold" font-size="8.00">sender</text>
<text text-anchor="start" x="79" y="-271.9" font-family="Roboto" font-size="8.00"> &#160;&#160;&#160;</text>
<text text-anchor="start" x="93.5" y="-271.9" font-family="Roboto" font-size="8.00"> &#160;&#160;&#160;</text>
<text text-anchor="start" x="102.5" y="-271.9" font-family="Roboto" font-weight="bold" font-size="8.00">ForeignKey (id)</text>
<text text-anchor="start" x="159.5" y="-271.9" font-family="Roboto" font-size="8.00"> &#160;&#160;&#160;</text>
<text text-anchor="start" x="44.5" y="-258.9" font-family="Roboto" font-size="8.00"> &#160;&#160;&#160;</text>
<text text-anchor="start" x="53.5" y="-258.9" font-family="Roboto" font-weight="bold" font-size="8.00">thread</text>
<text text-anchor="start" x="77.5" y="-258.9" font-family="Roboto" font-size="8.00"> &#160;&#160;&#160;</text>
<text text-anchor="start" x="93.5" y="-258.9" font-family="Roboto" font-size="8.00"> &#160;&#160;&#160;</text>
<text text-anchor="start" x="102.5" y="-258.9" font-family="Roboto" font-weight="bold" font-size="8.00">ForeignKey (id)</text>
<text text-anchor="start" x="159.5" y="-258.9" font-family="Roboto" font-size="8.00"> &#160;&#160;&#160;</text>
<text text-anchor="start" x="44.5" y="-245.9" font-family="Roboto" font-size="8.00"> &#160;&#160;&#160;</text>
<text text-anchor="start" x="53.5" y="-245.9" font-family="Roboto" font-size="8.00">body</text>
<text text-anchor="start" x="70.75" y="-245.9" font-family="Roboto" font-size="8.00"> &#160;&#160;&#160;</text>
<text text-anchor="start" x="93.5" y="-245.9" font-family="Roboto" font-size="8.00"> &#160;&#160;&#160;</text>
<text text-anchor="start" x="102.5" y="-245.9" font-family="Roboto" font-size="8.00">TextField</text>
<text text-anchor="start" x="137" y="-245.9" font-family="Roboto" font-size="8.00"> &#160;&#160;&#160;</text>
<text text-anchor="start" x="44.12" y="-232.9" font-family="Roboto" font-size="8.00"> &#160;&#160;&#160;</text>
<text text-anchor="start" x="53.12" y="-232.9" font-family="Roboto" font-size="8.00">sent_at</text>
<text text-anchor="start" x="80.88" y="-232.9" font-family="Roboto" font-size="8.00"> &#160;&#160;&#160;</text>
<text text-anchor="start" x="93.5" y="-232.9" font-family="Roboto" font-size="8.00"> &#160;&#160;&#160;</text>
<text text-anchor="start" x="102.5" y="-232.9" font-family="Roboto" font-size="8.00">DateTimeField</text>
<text text-anchor="start" x="157.25" y="-232.9" font-family="Roboto" font-size="8.00"> &#160;&#160;&#160;</text>
<polygon fill="none" stroke="black" points="41.5,-227.5 41.5,-315.5 171.5,-315.5 171.5,-227.5 41.5,-227.5"/>
</g>
<!-- interactions_models_Message&#45;&gt;interactions_models_Thread -->
<g id="edge2" class="edge">
<title>interactions_models_Message&#45;&gt;interactions_models_Thread</title>
<path fill="none" stroke="black" d="M70.19,-215.87C68.62,-212.43 67.21,-208.96 66,-205.5 59.9,-187.99 57.95,-166.9 57.43,-151.6"/>
<ellipse fill="black" stroke="black" cx="72.1" cy="-219.76" rx="4" ry="4"/>
<text text-anchor="middle" x="103.25" y="-197.9" font-family="Roboto" font-size="8.00"> thread (messages)</text>
</g>
<!-- interactions_models_Message&#45;&gt;account_models_CustomUser -->
<g id="edge3" class="edge">
<title>interactions_models_Message&#45;&gt;account_models_CustomUser</title>
<path fill="none" stroke="black" d="M135.8,-215.41C137.14,-212.1 138.39,-208.78 139.5,-205.5 157.4,-152.52 134.86,-130.51 162.25,-81.75 172.74,-63.07 190.89,-47.08 206.11,-35.91"/>
<ellipse fill="black" stroke="black" cx="134.06" cy="-219.48" rx="4" ry="4"/>
<text text-anchor="middle" x="210.12" y="-127.03" font-family="Roboto" font-size="8.00"> sender (sent_messages)</text>
</g>
<!-- interactions_models_Like -->
<g id="node3" class="node">
<title>interactions_models_Like</title>
<polygon fill="white" stroke="none" points="274.5,-92.25 274.5,-167.25 406.5,-167.25 406.5,-92.25 274.5,-92.25"/>
<polygon fill="#1b563f" stroke="none" points="275.5,-145.25 275.5,-166.25 405.5,-166.25 405.5,-145.25 275.5,-145.25"/>
<text text-anchor="start" x="318" y="-152.75" font-family="Roboto" font-size="8.00"> &#160;&#160;&#160;</text>
<text text-anchor="start" x="327" y="-152.75" font-family="Roboto" font-weight="bold" font-size="10.00" fill="white"> &#160;&#160;&#160;Like &#160;&#160;&#160;</text>
<text text-anchor="start" x="277.5" y="-136.65" font-family="Roboto" font-size="8.00"> &#160;&#160;&#160;</text>
<text text-anchor="start" x="286.5" y="-136.65" font-family="Roboto" font-weight="bold" font-size="8.00">id</text>
<text text-anchor="start" x="293.25" y="-136.65" font-family="Roboto" font-size="8.00"> &#160;&#160;&#160;</text>
<text text-anchor="start" x="328.5" y="-136.65" font-family="Roboto" font-size="8.00"> &#160;&#160;&#160;</text>
<text text-anchor="start" x="337.5" y="-136.65" font-family="Roboto" font-weight="bold" font-size="8.00">BigAutoField</text>
<text text-anchor="start" x="384.75" y="-136.65" font-family="Roboto" font-size="8.00"> &#160;&#160;&#160;</text>
<text text-anchor="start" x="277.5" y="-123.65" font-family="Roboto" font-size="8.00"> &#160;&#160;&#160;</text>
<text text-anchor="start" x="286.5" y="-123.65" font-family="Roboto" font-weight="bold" font-size="8.00">post</text>
<text text-anchor="start" x="303" y="-123.65" font-family="Roboto" font-size="8.00"> &#160;&#160;&#160;</text>
<text text-anchor="start" x="328.5" y="-123.65" font-family="Roboto" font-size="8.00"> &#160;&#160;&#160;</text>
<text text-anchor="start" x="337.5" y="-123.65" font-family="Roboto" font-weight="bold" font-size="8.00">ForeignKey (id)</text>
<text text-anchor="start" x="394.5" y="-123.65" font-family="Roboto" font-size="8.00"> &#160;&#160;&#160;</text>
<text text-anchor="start" x="277.5" y="-110.65" font-family="Roboto" font-size="8.00"> &#160;&#160;&#160;</text>
<text text-anchor="start" x="286.5" y="-110.65" font-family="Roboto" font-weight="bold" font-size="8.00">user</text>
<text text-anchor="start" x="303" y="-110.65" font-family="Roboto" font-size="8.00"> &#160;&#160;&#160;</text>
<text text-anchor="start" x="328.5" y="-110.65" font-family="Roboto" font-size="8.00"> &#160;&#160;&#160;</text>
<text text-anchor="start" x="337.5" y="-110.65" font-family="Roboto" font-weight="bold" font-size="8.00">ForeignKey (id)</text>
<text text-anchor="start" x="394.5" y="-110.65" font-family="Roboto" font-size="8.00"> &#160;&#160;&#160;</text>
<text text-anchor="start" x="277.38" y="-97.65" font-family="Roboto" font-size="8.00"> &#160;&#160;&#160;</text>
<text text-anchor="start" x="286.38" y="-97.65" font-family="Roboto" font-size="8.00" fill="#7b7b7b">liked_at</text>
<text text-anchor="start" x="315.62" y="-97.65" font-family="Roboto" font-size="8.00"> &#160;&#160;&#160;</text>
<text text-anchor="start" x="328.5" y="-97.65" font-family="Roboto" font-size="8.00"> &#160;&#160;&#160;</text>
<text text-anchor="start" x="337.5" y="-97.65" font-family="Roboto" font-size="8.00" fill="#7b7b7b">DateTimeField</text>
<text text-anchor="start" x="392.25" y="-97.65" font-family="Roboto" font-size="8.00"> &#160;&#160;&#160;</text>
<polygon fill="none" stroke="black" points="274.5,-92.25 274.5,-167.25 406.5,-167.25 406.5,-92.25 274.5,-92.25"/>
</g>
<!-- interactions_models_Like&#45;&gt;account_models_CustomUser -->
<g id="edge4" class="edge">
<title>interactions_models_Like&#45;&gt;account_models_CustomUser</title>
<path fill="none" stroke="black" d="M294.94,-82.45C278.61,-65.86 261.22,-48.19 248.96,-35.72"/>
<ellipse fill="black" stroke="black" cx="297.74" cy="-85.3" rx="4" ry="4"/>
<text text-anchor="middle" x="293.75" y="-56.15" font-family="Roboto" font-size="8.00"> user (like)</text>
</g>
<!-- creator_models_Post -->
<g id="node6" class="node">
<title>creator_models_Post</title>
<polygon fill="white" stroke="none" points="352.5,-6.88 352.5,-29.12 394.5,-29.12 394.5,-6.88 352.5,-6.88"/>
<polygon fill="#1b563f" stroke="none" points="352.5,-6.88 352.5,-29.12 394.5,-29.12 394.5,-6.88 352.5,-6.88"/>
<text text-anchor="start" x="357" y="-14.72" font-family="Roboto" font-size="8.00"> &#160;</text>
<text text-anchor="start" x="361.5" y="-14.72" font-family="Roboto" font-size="12.00" fill="white">Post</text>
<text text-anchor="start" x="385.5" y="-14.72" font-family="Roboto" font-size="8.00"> &#160;</text>
</g>
<!-- interactions_models_Like&#45;&gt;creator_models_Post -->
<g id="edge5" class="edge">
<title>interactions_models_Like&#45;&gt;creator_models_Post</title>
<path fill="none" stroke="black" d="M350.11,-79.79C352.25,-71.11 354.72,-62.23 357.5,-54 359.56,-47.92 362.32,-41.48 364.97,-35.81"/>
<ellipse fill="black" stroke="black" cx="349.13" cy="-83.99" rx="4" ry="4"/>
<text text-anchor="middle" x="380" y="-56.15" font-family="Roboto" font-size="8.00"> post (likes)</text>
</g>
<!-- interactions_models_Comment -->
<g id="node4" class="node">
<title>interactions_models_Comment</title>
<polygon fill="white" stroke="none" points="441,-85.75 441,-173.75 600,-173.75 600,-85.75 441,-85.75"/>
<polygon fill="#1b563f" stroke="none" points="442,-151.75 442,-172.75 599,-172.75 599,-151.75 442,-151.75"/>
<text text-anchor="start" x="486" y="-159.25" font-family="Roboto" font-size="8.00"> &#160;&#160;&#160;</text>
<text text-anchor="start" x="495" y="-159.25" font-family="Roboto" font-weight="bold" font-size="10.00" fill="white"> &#160;&#160;&#160;Comment &#160;&#160;&#160;</text>
<text text-anchor="start" x="444" y="-143.15" font-family="Roboto" font-size="8.00"> &#160;&#160;&#160;</text>
<text text-anchor="start" x="453" y="-143.15" font-family="Roboto" font-weight="bold" font-size="8.00">id</text>
<text text-anchor="start" x="459.75" y="-143.15" font-family="Roboto" font-size="8.00"> &#160;&#160;&#160;</text>
<text text-anchor="start" x="522" y="-143.15" font-family="Roboto" font-size="8.00"> &#160;&#160;&#160;</text>
<text text-anchor="start" x="531" y="-143.15" font-family="Roboto" font-weight="bold" font-size="8.00">BigAutoField</text>
<text text-anchor="start" x="578.25" y="-143.15" font-family="Roboto" font-size="8.00"> &#160;&#160;&#160;</text>
<text text-anchor="start" x="444" y="-130.15" font-family="Roboto" font-size="8.00"> &#160;&#160;&#160;</text>
<text text-anchor="start" x="453" y="-130.15" font-family="Roboto" font-weight="bold" font-size="8.00">post</text>
<text text-anchor="start" x="469.5" y="-130.15" font-family="Roboto" font-size="8.00"> &#160;&#160;&#160;</text>
<text text-anchor="start" x="522" y="-130.15" font-family="Roboto" font-size="8.00"> &#160;&#160;&#160;</text>
<text text-anchor="start" x="531" y="-130.15" font-family="Roboto" font-weight="bold" font-size="8.00">ForeignKey (id)</text>
<text text-anchor="start" x="588" y="-130.15" font-family="Roboto" font-size="8.00"> &#160;&#160;&#160;</text>
<text text-anchor="start" x="444" y="-117.15" font-family="Roboto" font-size="8.00"> &#160;&#160;&#160;</text>
<text text-anchor="start" x="453" y="-117.15" font-family="Roboto" font-weight="bold" font-size="8.00">user</text>
<text text-anchor="start" x="469.5" y="-117.15" font-family="Roboto" font-size="8.00"> &#160;&#160;&#160;</text>
<text text-anchor="start" x="522" y="-117.15" font-family="Roboto" font-size="8.00"> &#160;&#160;&#160;</text>
<text text-anchor="start" x="531" y="-117.15" font-family="Roboto" font-weight="bold" font-size="8.00">ForeignKey (id)</text>
<text text-anchor="start" x="588" y="-117.15" font-family="Roboto" font-size="8.00"> &#160;&#160;&#160;</text>
<text text-anchor="start" x="443.88" y="-104.15" font-family="Roboto" font-size="8.00"> &#160;&#160;&#160;</text>
<text text-anchor="start" x="452.88" y="-104.15" font-family="Roboto" font-size="8.00" fill="#7b7b7b">commented_at</text>
<text text-anchor="start" x="509.12" y="-104.15" font-family="Roboto" font-size="8.00"> &#160;&#160;&#160;</text>
<text text-anchor="start" x="522" y="-104.15" font-family="Roboto" font-size="8.00"> &#160;&#160;&#160;</text>
<text text-anchor="start" x="531" y="-104.15" font-family="Roboto" font-size="8.00" fill="#7b7b7b">DateTimeField</text>
<text text-anchor="start" x="585.75" y="-104.15" font-family="Roboto" font-size="8.00"> &#160;&#160;&#160;</text>
<text text-anchor="start" x="444" y="-91.15" font-family="Roboto" font-size="8.00"> &#160;&#160;&#160;</text>
<text text-anchor="start" x="453" y="-91.15" font-family="Roboto" font-size="8.00">text</text>
<text text-anchor="start" x="467.25" y="-91.15" font-family="Roboto" font-size="8.00"> &#160;&#160;&#160;</text>
<text text-anchor="start" x="522" y="-91.15" font-family="Roboto" font-size="8.00"> &#160;&#160;&#160;</text>
<text text-anchor="start" x="531" y="-91.15" font-family="Roboto" font-size="8.00">TextField</text>
<text text-anchor="start" x="565.5" y="-91.15" font-family="Roboto" font-size="8.00"> &#160;&#160;&#160;</text>
<polygon fill="none" stroke="black" points="441,-85.75 441,-173.75 600,-173.75 600,-85.75 441,-85.75"/>
</g>
<!-- interactions_models_Comment&#45;&gt;account_models_CustomUser -->
<g id="edge6" class="edge">
<title>interactions_models_Comment&#45;&gt;account_models_CustomUser</title>
<path fill="none" stroke="black" d="M448.15,-77.22C433.53,-68.48 417.91,-60.23 402.5,-54 380.99,-45.31 323.84,-34.41 281.71,-27.1"/>
<ellipse fill="black" stroke="black" cx="451.85" cy="-79.49" rx="4" ry="4"/>
<text text-anchor="middle" x="454" y="-56.15" font-family="Roboto" font-size="8.00"> user (comment)</text>
</g>
<!-- interactions_models_Comment&#45;&gt;creator_models_Post -->
<g id="edge7" class="edge">
<title>interactions_models_Comment&#45;&gt;creator_models_Post</title>
<path fill="none" stroke="black" d="M506.09,-73.87C502.3,-66.48 497.51,-59.54 491.5,-54 467.06,-31.48 428.78,-23.41 402.48,-20.54"/>
<ellipse fill="black" stroke="black" cx="507.96" cy="-77.95" rx="4" ry="4"/>
<text text-anchor="middle" x="533.25" y="-56.15" font-family="Roboto" font-size="8.00"> post (comments)</text>
</g>
<!-- \n\n\n -->
<g id="node7" class="node">
<title>\n\n\n</title>
</g>
</g>
</svg>
