<?xml version="1.0" encoding="UTF-8" standalone="no"?>
<!DOCTYPE svg PUBLIC "-//W3C//DTD SVG 1.1//EN"
 "http://www.w3.org/Graphics/SVG/1.1/DTD/svg11.dtd">
<!-- Generated by graphviz version 11.0.0 (20240428.1522)
 -->
<!-- Title: packages_onlyvans Pages: 1 -->
<svg width="8224pt" height="260pt"
 viewBox="0.00 0.00 8223.75 260.00" xmlns="http://www.w3.org/2000/svg" xmlns:xlink="http://www.w3.org/1999/xlink">
<g id="graph0" class="graph" transform="scale(1 1) rotate(0) translate(4 256)">
<title>packages_onlyvans</title>
<polygon fill="white" stroke="none" points="-4,4 -4,-256 8219.75,-256 8219.75,4 -4,4"/>
<!-- onlyvans -->
<g id="node1" class="node">
<title>onlyvans</title>
<polygon fill="none" stroke="black" points="65.5,-36 0,-36 0,0 65.5,0 65.5,-36"/>
<text text-anchor="middle" x="32.75" y="-12.57" font-family="Times New Roman,serif" font-size="14.00">onlyvans</text>
</g>
<!-- onlyvans.account -->
<g id="node2" class="node">
<title>onlyvans.account</title>
<polygon fill="none" stroke="black" points="197.5,-36 84,-36 84,0 197.5,0 197.5,-36"/>
<text text-anchor="middle" x="140.75" y="-12.57" font-family="Times New Roman,serif" font-size="14.00">onlyvans.account</text>
</g>
<!-- onlyvans.account.admin -->
<g id="node3" class="node">
<title>onlyvans.account.admin</title>
<polygon fill="none" stroke="black" points="366.25,-36 215.25,-36 215.25,0 366.25,0 366.25,-36"/>
<text text-anchor="middle" x="290.75" y="-12.57" font-family="Times New Roman,serif" font-size="14.00">onlyvans.account.admin</text>
</g>
<!-- onlyvans.account.forms -->
<g id="node5" class="node">
<title>onlyvans.account.forms</title>
<polygon fill="none" stroke="black" points="417.88,-108 267.62,-108 267.62,-72 417.88,-72 417.88,-108"/>
<text text-anchor="middle" x="342.75" y="-84.58" font-family="Times New Roman,serif" font-size="14.00">onlyvans.account.forms</text>
</g>
<!-- onlyvans.account.admin&#45;&gt;onlyvans.account.forms -->
<g id="edge1" class="edge">
<title>onlyvans.account.admin&#45;&gt;onlyvans.account.forms</title>
<path fill="none" stroke="black" d="M303.6,-36.3C309.59,-44.36 316.83,-54.11 323.45,-63.02"/>
<polygon fill="black" stroke="black" points="329.32,-70.92 319.74,-65.57 327.06,-67.88 323.35,-62.89 323.35,-62.89 323.35,-62.89 327.06,-67.88 326.97,-60.21 329.32,-70.92"/>
</g>
<!-- onlyvans.account.models -->
<g id="node9" class="node">
<title>onlyvans.account.models</title>
<polygon fill="none" stroke="black" points="504.62,-180 346.88,-180 346.88,-144 504.62,-144 504.62,-180"/>
<text text-anchor="middle" x="425.75" y="-156.57" font-family="Times New Roman,serif" font-size="14.00">onlyvans.account.models</text>
</g>
<!-- onlyvans.account.admin&#45;&gt;onlyvans.account.models -->
<g id="edge2" class="edge">
<title>onlyvans.account.admin&#45;&gt;onlyvans.account.models</title>
<path fill="none" stroke="black" d="M275.43,-36.45C260.67,-55.48 242.75,-86.14 258.75,-108 276.83,-132.7 306.5,-146.18 335.86,-153.43"/>
<polygon fill="black" stroke="black" points="345.45,-155.56 334.71,-157.78 341.76,-154.74 335.69,-153.39 335.69,-153.39 335.69,-153.39 341.76,-154.74 336.67,-149 345.45,-155.56"/>
</g>
<!-- onlyvans.account.apps -->
<g id="node4" class="node">
<title>onlyvans.account.apps</title>
<polygon fill="none" stroke="black" points="912.88,-36 768.62,-36 768.62,0 912.88,0 912.88,-36"/>
<text text-anchor="middle" x="840.75" y="-12.57" font-family="Times New Roman,serif" font-size="14.00">onlyvans.account.apps</text>
</g>
<!-- onlyvans.account.forms&#45;&gt;onlyvans.account.models -->
<g id="edge3" class="edge">
<title>onlyvans.account.forms&#45;&gt;onlyvans.account.models</title>
<path fill="none" stroke="black" d="M363.27,-108.3C373.34,-116.8 385.66,-127.19 396.68,-136.49"/>
<polygon fill="black" stroke="black" points="404.25,-142.87 393.7,-139.86 401.36,-140.43 396.61,-136.42 396.61,-136.42 396.61,-136.42 401.36,-140.43 399.51,-132.98 404.25,-142.87"/>
</g>
<!-- onlyvans.account.helpers -->
<g id="node6" class="node">
<title>onlyvans.account.helpers</title>
<polygon fill="none" stroke="black" points="754.25,-108 597.25,-108 597.25,-72 754.25,-72 754.25,-108"/>
<text text-anchor="middle" x="675.75" y="-84.58" font-family="Times New Roman,serif" font-size="14.00">onlyvans.account.helpers</text>
</g>
<!-- onlyvans.account.migrations -->
<g id="node7" class="node">
<title>onlyvans.account.migrations</title>
<polygon fill="none" stroke="black" points="1106.25,-36 931.25,-36 931.25,0 1106.25,0 1106.25,-36"/>
<text text-anchor="middle" x="1018.75" y="-12.57" font-family="Times New Roman,serif" font-size="14.00">onlyvans.account.migrations</text>
</g>
<!-- onlyvans.account.migrations.0001_initial -->
<g id="node8" class="node">
<title>onlyvans.account.migrations.0001_initial</title>
<polygon fill="none" stroke="black" points="1365.62,-36 1123.88,-36 1123.88,0 1365.62,0 1365.62,-36"/>
<text text-anchor="middle" x="1244.75" y="-12.57" font-family="Times New Roman,serif" font-size="14.00">onlyvans.account.migrations.0001_initial</text>
</g>
<!-- onlyvans.account.validators -->
<g id="node14" class="node">
<title>onlyvans.account.validators</title>
<polygon fill="none" stroke="black" points="511.38,-252 340.12,-252 340.12,-216 511.38,-216 511.38,-252"/>
<text text-anchor="middle" x="425.75" y="-228.57" font-family="Times New Roman,serif" font-size="14.00">onlyvans.account.validators</text>
</g>
<!-- onlyvans.account.models&#45;&gt;onlyvans.account.validators -->
<g id="edge4" class="edge">
<title>onlyvans.account.models&#45;&gt;onlyvans.account.validators</title>
<path fill="none" stroke="black" d="M425.75,-180.3C425.75,-187.68 425.75,-196.48 425.75,-204.75"/>
<polygon fill="black" stroke="black" points="425.75,-214.68 421.25,-204.68 425.75,-210.9 425.75,-204.68 425.75,-204.68 425.75,-204.68 425.75,-210.9 430.25,-204.68 425.75,-214.68"/>
</g>
<!-- onlyvans.account.templatetags -->
<g id="node10" class="node">
<title>onlyvans.account.templatetags</title>
<polygon fill="none" stroke="black" points="1569.88,-36 1383.62,-36 1383.62,0 1569.88,0 1569.88,-36"/>
<text text-anchor="middle" x="1476.75" y="-12.57" font-family="Times New Roman,serif" font-size="14.00">onlyvans.account.templatetags</text>
</g>
<!-- onlyvans.account.templatetags.custom_filters -->
<g id="node11" class="node">
<title>onlyvans.account.templatetags.custom_filters</title>
<polygon fill="none" stroke="black" points="1857.5,-36 1588,-36 1588,0 1857.5,0 1857.5,-36"/>
<text text-anchor="middle" x="1722.75" y="-12.57" font-family="Times New Roman,serif" font-size="14.00">onlyvans.account.templatetags.custom_filters</text>
</g>
<!-- onlyvans.account.tests -->
<g id="node12" class="node">
<title>onlyvans.account.tests</title>
<polygon fill="none" stroke="black" points="579.12,-108 436.38,-108 436.38,-72 579.12,-72 579.12,-108"/>
<text text-anchor="middle" x="507.75" y="-84.58" font-family="Times New Roman,serif" font-size="14.00">onlyvans.account.tests</text>
</g>
<!-- onlyvans.account.tests&#45;&gt;onlyvans.account.models -->
<g id="edge5" class="edge">
<title>onlyvans.account.tests&#45;&gt;onlyvans.account.models</title>
<path fill="none" stroke="black" d="M487.48,-108.3C477.53,-116.8 465.36,-127.19 454.47,-136.49"/>
<polygon fill="black" stroke="black" points="447,-142.86 451.68,-132.95 449.87,-140.41 454.6,-136.37 454.6,-136.37 454.6,-136.37 449.87,-140.41 457.52,-139.79 447,-142.86"/>
</g>
<!-- onlyvans.account.urls -->
<g id="node13" class="node">
<title>onlyvans.account.urls</title>
<polygon fill="none" stroke="black" points="2013.5,-36 1876,-36 1876,0 2013.5,0 2013.5,-36"/>
<text text-anchor="middle" x="1944.75" y="-12.57" font-family="Times New Roman,serif" font-size="14.00">onlyvans.account.urls</text>
</g>
<!-- onlyvans.account.views -->
<g id="node15" class="node">
<title>onlyvans.account.views</title>
<polygon fill="none" stroke="black" points="750.12,-36 601.38,-36 601.38,0 750.12,0 750.12,-36"/>
<text text-anchor="middle" x="675.75" y="-12.57" font-family="Times New Roman,serif" font-size="14.00">onlyvans.account.views</text>
</g>
<!-- onlyvans.account.views&#45;&gt;onlyvans.account.forms -->
<g id="edge6" class="edge">
<title>onlyvans.account.views&#45;&gt;onlyvans.account.forms</title>
<path fill="none" stroke="black" d="M601.02,-34.71C549.98,-45.44 482.21,-59.68 428.9,-70.89"/>
<polygon fill="black" stroke="black" points="419.29,-72.91 428.15,-66.45 422.99,-72.13 429.07,-70.85 429.07,-70.85 429.07,-70.85 422.99,-72.13 430,-75.26 419.29,-72.91"/>
</g>
<!-- onlyvans.account.views&#45;&gt;onlyvans.account.helpers -->
<g id="edge7" class="edge">
<title>onlyvans.account.views&#45;&gt;onlyvans.account.helpers</title>
<path fill="none" stroke="black" d="M675.75,-36.3C675.75,-43.68 675.75,-52.48 675.75,-60.75"/>
<polygon fill="black" stroke="black" points="675.75,-70.68 671.25,-60.68 675.75,-66.9 675.75,-60.68 675.75,-60.68 675.75,-60.68 675.75,-66.9 680.25,-60.68 675.75,-70.68"/>
</g>
<!-- onlyvans.account.views&#45;&gt;onlyvans.account.models -->
<g id="edge8" class="edge">
<title>onlyvans.account.views&#45;&gt;onlyvans.account.models</title>
<path fill="none" stroke="black" d="M722.73,-36.39C738.31,-44.66 753.91,-56.27 762.75,-72 770.59,-85.95 773.15,-95.84 762.75,-108 731.56,-144.48 604.8,-156.01 515.97,-159.56"/>
<polygon fill="black" stroke="black" points="506.01,-159.93 515.84,-155.06 509.79,-159.79 516,-159.56 516,-159.56 516,-159.56 509.79,-159.79 516.17,-164.06 506.01,-159.93"/>
</g>
<!-- onlyvans.client -->
<g id="node16" class="node">
<title>onlyvans.client</title>
<polygon fill="none" stroke="black" points="2130,-36 2031.5,-36 2031.5,0 2130,0 2130,-36"/>
<text text-anchor="middle" x="2080.75" y="-12.57" font-family="Times New Roman,serif" font-size="14.00">onlyvans.client</text>
</g>
<!-- onlyvans.client.admin -->
<g id="node17" class="node">
<title>onlyvans.client.admin</title>
<polygon fill="none" stroke="black" points="2283.75,-36 2147.75,-36 2147.75,0 2283.75,0 2283.75,-36"/>
<text text-anchor="middle" x="2215.75" y="-12.57" font-family="Times New Roman,serif" font-size="14.00">onlyvans.client.admin</text>
</g>
<!-- onlyvans.client.models -->
<g id="node22" class="node">
<title>onlyvans.client.models</title>
<polygon fill="none" stroke="black" points="2501.12,-108 2358.38,-108 2358.38,-72 2501.12,-72 2501.12,-108"/>
<text text-anchor="middle" x="2429.75" y="-84.58" font-family="Times New Roman,serif" font-size="14.00">onlyvans.client.models</text>
</g>
<!-- onlyvans.client.admin&#45;&gt;onlyvans.client.models -->
<g id="edge9" class="edge">
<title>onlyvans.client.admin&#45;&gt;onlyvans.client.models</title>
<path fill="none" stroke="black" d="M2269.2,-36.48C2298.55,-46.08 2335.13,-58.05 2365.97,-68.14"/>
<polygon fill="black" stroke="black" points="2375.45,-71.24 2364.55,-72.41 2371.86,-70.06 2365.95,-68.13 2365.95,-68.13 2365.95,-68.13 2371.86,-70.06 2367.35,-63.85 2375.45,-71.24"/>
</g>
<!-- onlyvans.client.apps -->
<g id="node18" class="node">
<title>onlyvans.client.apps</title>
<polygon fill="none" stroke="black" points="2877.38,-36 2748.12,-36 2748.12,0 2877.38,0 2877.38,-36"/>
<text text-anchor="middle" x="2812.75" y="-12.57" font-family="Times New Roman,serif" font-size="14.00">onlyvans.client.apps</text>
</g>
<!-- onlyvans.client.decorators -->
<g id="node19" class="node">
<title>onlyvans.client.decorators</title>
<polygon fill="none" stroke="black" points="2743.88,-108 2581.62,-108 2581.62,-72 2743.88,-72 2743.88,-108"/>
<text text-anchor="middle" x="2662.75" y="-84.58" font-family="Times New Roman,serif" font-size="14.00">onlyvans.client.decorators</text>
</g>
<!-- onlyvans.client.migrations -->
<g id="node20" class="node">
<title>onlyvans.client.migrations</title>
<polygon fill="none" stroke="black" points="3055.75,-36 2895.75,-36 2895.75,0 3055.75,0 3055.75,-36"/>
<text text-anchor="middle" x="2975.75" y="-12.57" font-family="Times New Roman,serif" font-size="14.00">onlyvans.client.migrations</text>
</g>
<!-- onlyvans.client.migrations.0001_initial -->
<g id="node21" class="node">
<title>onlyvans.client.migrations.0001_initial</title>
<polygon fill="none" stroke="black" points="3300.12,-36 3073.38,-36 3073.38,0 3300.12,0 3300.12,-36"/>
<text text-anchor="middle" x="3186.75" y="-12.57" font-family="Times New Roman,serif" font-size="14.00">onlyvans.client.migrations.0001_initial</text>
</g>
<!-- onlyvans.client.tasks -->
<g id="node23" class="node">
<title>onlyvans.client.tasks</title>
<polygon fill="none" stroke="black" points="2432.12,-36 2301.38,-36 2301.38,0 2432.12,0 2432.12,-36"/>
<text text-anchor="middle" x="2366.75" y="-12.57" font-family="Times New Roman,serif" font-size="14.00">onlyvans.client.tasks</text>
</g>
<!-- onlyvans.client.tasks&#45;&gt;onlyvans.client.models -->
<g id="edge10" class="edge">
<title>onlyvans.client.tasks&#45;&gt;onlyvans.client.models</title>
<path fill="none" stroke="black" d="M2382.32,-36.3C2389.72,-44.53 2398.72,-54.52 2406.87,-63.58"/>
<polygon fill="black" stroke="black" points="2413.54,-70.99 2403.51,-66.57 2411.01,-68.18 2406.85,-63.56 2406.85,-63.56 2406.85,-63.56 2411.01,-68.18 2410.2,-60.55 2413.54,-70.99"/>
</g>
<!-- onlyvans.client.tests -->
<g id="node24" class="node">
<title>onlyvans.client.tests</title>
<polygon fill="none" stroke="black" points="2577.62,-36 2449.88,-36 2449.88,0 2577.62,0 2577.62,-36"/>
<text text-anchor="middle" x="2513.75" y="-12.57" font-family="Times New Roman,serif" font-size="14.00">onlyvans.client.tests</text>
</g>
<!-- onlyvans.client.tests&#45;&gt;onlyvans.client.models -->
<g id="edge11" class="edge">
<title>onlyvans.client.tests&#45;&gt;onlyvans.client.models</title>
<path fill="none" stroke="black" d="M2492.99,-36.3C2482.79,-44.8 2470.33,-55.19 2459.17,-64.49"/>
<polygon fill="black" stroke="black" points="2451.5,-70.87 2456.3,-61.01 2454.41,-68.45 2459.18,-64.47 2459.18,-64.47 2459.18,-64.47 2454.41,-68.45 2462.07,-67.93 2451.5,-70.87"/>
</g>
<!-- onlyvans.client.urls -->
<g id="node25" class="node">
<title>onlyvans.client.urls</title>
<polygon fill="none" stroke="black" points="3441,-36 3318.5,-36 3318.5,0 3441,0 3441,-36"/>
<text text-anchor="middle" x="3379.75" y="-12.57" font-family="Times New Roman,serif" font-size="14.00">onlyvans.client.urls</text>
</g>
<!-- onlyvans.client.views -->
<g id="node26" class="node">
<title>onlyvans.client.views</title>
<polygon fill="none" stroke="black" points="2729.62,-36 2595.88,-36 2595.88,0 2729.62,0 2729.62,-36"/>
<text text-anchor="middle" x="2662.75" y="-12.57" font-family="Times New Roman,serif" font-size="14.00">onlyvans.client.views</text>
</g>
<!-- onlyvans.client.views&#45;&gt;onlyvans.client.decorators -->
<g id="edge12" class="edge">
<title>onlyvans.client.views&#45;&gt;onlyvans.client.decorators</title>
<path fill="none" stroke="black" d="M2662.75,-36.3C2662.75,-43.68 2662.75,-52.48 2662.75,-60.75"/>
<polygon fill="black" stroke="black" points="2662.75,-70.68 2658.25,-60.68 2662.75,-66.9 2662.75,-60.68 2662.75,-60.68 2662.75,-60.68 2662.75,-66.9 2667.25,-60.68 2662.75,-70.68"/>
</g>
<!-- onlyvans.client.views&#45;&gt;onlyvans.client.models -->
<g id="edge13" class="edge">
<title>onlyvans.client.views&#45;&gt;onlyvans.client.models</title>
<path fill="none" stroke="black" d="M2604.56,-36.48C2572.32,-46.17 2532.07,-58.26 2498.32,-68.4"/>
<polygon fill="black" stroke="black" points="2488.77,-71.27 2497.06,-64.08 2492.39,-70.18 2498.35,-68.39 2498.35,-68.39 2498.35,-68.39 2492.39,-70.18 2499.65,-72.7 2488.77,-71.27"/>
</g>
<!-- onlyvans.creator -->
<g id="node27" class="node">
<title>onlyvans.creator</title>
<polygon fill="none" stroke="black" points="3566.88,-36 3458.62,-36 3458.62,0 3566.88,0 3566.88,-36"/>
<text text-anchor="middle" x="3512.75" y="-12.57" font-family="Times New Roman,serif" font-size="14.00">onlyvans.creator</text>
</g>
<!-- onlyvans.creator.admin -->
<g id="node28" class="node">
<title>onlyvans.creator.admin</title>
<polygon fill="none" stroke="black" points="3375.62,-108 3229.88,-108 3229.88,-72 3375.62,-72 3375.62,-108"/>
<text text-anchor="middle" x="3302.75" y="-84.58" font-family="Times New Roman,serif" font-size="14.00">onlyvans.creator.admin</text>
</g>
<!-- onlyvans.creator.models -->
<g id="node35" class="node">
<title>onlyvans.creator.models</title>
<polygon fill="none" stroke="black" points="3783,-180 3630.5,-180 3630.5,-144 3783,-144 3783,-180"/>
<text text-anchor="middle" x="3706.75" y="-156.57" font-family="Times New Roman,serif" font-size="14.00">onlyvans.creator.models</text>
</g>
<!-- onlyvans.creator.admin&#45;&gt;onlyvans.creator.models -->
<g id="edge14" class="edge">
<title>onlyvans.creator.admin&#45;&gt;onlyvans.creator.models</title>
<path fill="none" stroke="black" d="M3376.04,-106.35C3378.98,-106.92 3381.89,-107.47 3384.75,-108 3463.86,-122.71 3554.31,-137.41 3619.16,-147.58"/>
<polygon fill="black" stroke="black" points="3628.95,-149.12 3618.37,-152.02 3625.21,-148.53 3619.07,-147.57 3619.07,-147.57 3619.07,-147.57 3625.21,-148.53 3619.76,-143.12 3628.95,-149.12"/>
</g>
<!-- onlyvans.creator.apps -->
<g id="node29" class="node">
<title>onlyvans.creator.apps</title>
<polygon fill="none" stroke="black" points="3885.25,-36 3746.25,-36 3746.25,0 3885.25,0 3885.25,-36"/>
<text text-anchor="middle" x="3815.75" y="-12.57" font-family="Times New Roman,serif" font-size="14.00">onlyvans.creator.apps</text>
</g>
<!-- onlyvans.creator.decorators -->
<g id="node30" class="node">
<title>onlyvans.creator.decorators</title>
<polygon fill="none" stroke="black" points="3565.75,-108 3393.75,-108 3393.75,-72 3565.75,-72 3565.75,-108"/>
<text text-anchor="middle" x="3479.75" y="-84.58" font-family="Times New Roman,serif" font-size="14.00">onlyvans.creator.decorators</text>
</g>
<!-- onlyvans.creator.forms -->
<g id="node31" class="node">
<title>onlyvans.creator.forms</title>
<polygon fill="none" stroke="black" points="3729.25,-108 3584.25,-108 3584.25,-72 3729.25,-72 3729.25,-108"/>
<text text-anchor="middle" x="3656.75" y="-84.58" font-family="Times New Roman,serif" font-size="14.00">onlyvans.creator.forms</text>
</g>
<!-- onlyvans.creator.forms&#45;&gt;onlyvans.creator.models -->
<g id="edge15" class="edge">
<title>onlyvans.creator.forms&#45;&gt;onlyvans.creator.models</title>
<path fill="none" stroke="black" d="M3669.11,-108.3C3674.86,-116.36 3681.83,-126.11 3688.19,-135.02"/>
<polygon fill="black" stroke="black" points="3693.82,-142.9 3684.35,-137.38 3691.63,-139.83 3688.01,-134.77 3688.01,-134.77 3688.01,-134.77 3691.63,-139.83 3691.67,-132.15 3693.82,-142.9"/>
</g>
<!-- onlyvans.creator.helpers -->
<g id="node32" class="node">
<title>onlyvans.creator.helpers</title>
<polygon fill="none" stroke="black" points="3782.62,-252 3630.88,-252 3630.88,-216 3782.62,-216 3782.62,-252"/>
<text text-anchor="middle" x="3706.75" y="-228.57" font-family="Times New Roman,serif" font-size="14.00">onlyvans.creator.helpers</text>
</g>
<!-- onlyvans.creator.migrations -->
<g id="node33" class="node">
<title>onlyvans.creator.migrations</title>
<polygon fill="none" stroke="black" points="4072.62,-36 3902.88,-36 3902.88,0 4072.62,0 4072.62,-36"/>
<text text-anchor="middle" x="3987.75" y="-12.57" font-family="Times New Roman,serif" font-size="14.00">onlyvans.creator.migrations</text>
</g>
<!-- onlyvans.creator.migrations.0001_initial -->
<g id="node34" class="node">
<title>onlyvans.creator.migrations.0001_initial</title>
<polygon fill="none" stroke="black" points="4327,-36 4090.5,-36 4090.5,0 4327,0 4327,-36"/>
<text text-anchor="middle" x="4208.75" y="-12.57" font-family="Times New Roman,serif" font-size="14.00">onlyvans.creator.migrations.0001_initial</text>
</g>
<!-- onlyvans.creator.models&#45;&gt;onlyvans.creator.helpers -->
<g id="edge16" class="edge">
<title>onlyvans.creator.models&#45;&gt;onlyvans.creator.helpers</title>
<path fill="none" stroke="black" d="M3706.75,-180.3C3706.75,-187.68 3706.75,-196.48 3706.75,-204.75"/>
<polygon fill="black" stroke="black" points="3706.75,-214.68 3702.25,-204.68 3706.75,-210.9 3706.75,-204.68 3706.75,-204.68 3706.75,-204.68 3706.75,-210.9 3711.25,-204.68 3706.75,-214.68"/>
</g>
<!-- onlyvans.creator.tests -->
<g id="node36" class="node">
<title>onlyvans.creator.tests</title>
<polygon fill="none" stroke="black" points="3923.5,-108 3786,-108 3786,-72 3923.5,-72 3923.5,-108"/>
<text text-anchor="middle" x="3854.75" y="-84.58" font-family="Times New Roman,serif" font-size="14.00">onlyvans.creator.tests</text>
</g>
<!-- onlyvans.creator.tests&#45;&gt;onlyvans.creator.models -->
<g id="edge17" class="edge">
<title>onlyvans.creator.tests&#45;&gt;onlyvans.creator.models</title>
<path fill="none" stroke="black" d="M3817.79,-108.48C3798.29,-117.71 3774.17,-129.11 3753.39,-138.94"/>
<polygon fill="black" stroke="black" points="3744.6,-143.1 3751.72,-134.75 3748.02,-141.48 3753.64,-138.82 3753.64,-138.82 3753.64,-138.82 3748.02,-141.48 3755.57,-142.89 3744.6,-143.1"/>
</g>
<!-- onlyvans.creator.urls -->
<g id="node37" class="node">
<title>onlyvans.creator.urls</title>
<polygon fill="none" stroke="black" points="4476.88,-36 4344.62,-36 4344.62,0 4476.88,0 4476.88,-36"/>
<text text-anchor="middle" x="4410.75" y="-12.57" font-family="Times New Roman,serif" font-size="14.00">onlyvans.creator.urls</text>
</g>
<!-- onlyvans.creator.views -->
<g id="node38" class="node">
<title>onlyvans.creator.views</title>
<polygon fill="none" stroke="black" points="3728.5,-36 3585,-36 3585,0 3728.5,0 3728.5,-36"/>
<text text-anchor="middle" x="3656.75" y="-12.57" font-family="Times New Roman,serif" font-size="14.00">onlyvans.creator.views</text>
</g>
<!-- onlyvans.creator.views&#45;&gt;onlyvans.creator.decorators -->
<g id="edge18" class="edge">
<title>onlyvans.creator.views&#45;&gt;onlyvans.creator.decorators</title>
<path fill="none" stroke="black" d="M3612.54,-36.48C3588.69,-45.92 3559.06,-57.63 3533.85,-67.61"/>
<polygon fill="black" stroke="black" points="3524.83,-71.17 3532.48,-63.31 3528.35,-69.78 3534.13,-67.49 3534.13,-67.49 3534.13,-67.49 3528.35,-69.78 3535.79,-71.68 3524.83,-71.17"/>
</g>
<!-- onlyvans.creator.views&#45;&gt;onlyvans.creator.forms -->
<g id="edge19" class="edge">
<title>onlyvans.creator.views&#45;&gt;onlyvans.creator.forms</title>
<path fill="none" stroke="black" d="M3656.75,-36.3C3656.75,-43.68 3656.75,-52.48 3656.75,-60.75"/>
<polygon fill="black" stroke="black" points="3656.75,-70.68 3652.25,-60.68 3656.75,-66.9 3656.75,-60.68 3656.75,-60.68 3656.75,-60.68 3656.75,-66.9 3661.25,-60.68 3656.75,-70.68"/>
</g>
<!-- onlyvans.creator.views&#45;&gt;onlyvans.creator.models -->
<g id="edge20" class="edge">
<title>onlyvans.creator.views&#45;&gt;onlyvans.creator.models</title>
<path fill="none" stroke="black" d="M3699.29,-36.36C3714.22,-44.77 3729.36,-56.48 3737.75,-72 3748.5,-91.89 3738.62,-116.23 3727.24,-134.43"/>
<polygon fill="black" stroke="black" points="3721.75,-142.57 3723.61,-131.77 3723.87,-139.44 3727.34,-134.28 3727.34,-134.28 3727.34,-134.28 3723.87,-139.44 3731.07,-136.8 3721.75,-142.57"/>
</g>
<!-- onlyvans.finances -->
<g id="node39" class="node">
<title>onlyvans.finances</title>
<polygon fill="none" stroke="black" points="4610.25,-36 4495.25,-36 4495.25,0 4610.25,0 4610.25,-36"/>
<text text-anchor="middle" x="4552.75" y="-12.57" font-family="Times New Roman,serif" font-size="14.00">onlyvans.finances</text>
</g>
<!-- onlyvans.finances.admin -->
<g id="node40" class="node">
<title>onlyvans.finances.admin</title>
<polygon fill="none" stroke="black" points="4781,-36 4628.5,-36 4628.5,0 4781,0 4781,-36"/>
<text text-anchor="middle" x="4704.75" y="-12.57" font-family="Times New Roman,serif" font-size="14.00">onlyvans.finances.admin</text>
</g>
<!-- onlyvans.finances.models -->
<g id="node45" class="node">
<title>onlyvans.finances.models</title>
<polygon fill="none" stroke="black" points="4944.38,-108 4785.12,-108 4785.12,-72 4944.38,-72 4944.38,-108"/>
<text text-anchor="middle" x="4864.75" y="-84.58" font-family="Times New Roman,serif" font-size="14.00">onlyvans.finances.models</text>
</g>
<!-- onlyvans.finances.admin&#45;&gt;onlyvans.finances.models -->
<g id="edge21" class="edge">
<title>onlyvans.finances.admin&#45;&gt;onlyvans.finances.models</title>
<path fill="none" stroke="black" d="M4744.71,-36.48C4765.98,-45.79 4792.34,-57.32 4814.94,-67.21"/>
<polygon fill="black" stroke="black" points="4823.9,-71.13 4812.94,-71.24 4820.44,-69.61 4814.74,-67.12 4814.74,-67.12 4814.74,-67.12 4820.44,-69.61 4816.55,-63 4823.9,-71.13"/>
</g>
<!-- onlyvans.finances.apps -->
<g id="node41" class="node">
<title>onlyvans.finances.apps</title>
<polygon fill="none" stroke="black" points="5274.62,-36 5128.88,-36 5128.88,0 5274.62,0 5274.62,-36"/>
<text text-anchor="middle" x="5201.75" y="-12.57" font-family="Times New Roman,serif" font-size="14.00">onlyvans.finances.apps</text>
</g>
<!-- onlyvans.finances.forms -->
<g id="node42" class="node">
<title>onlyvans.finances.forms</title>
<polygon fill="none" stroke="black" points="5114.62,-108 4962.88,-108 4962.88,-72 5114.62,-72 5114.62,-108"/>
<text text-anchor="middle" x="5038.75" y="-84.58" font-family="Times New Roman,serif" font-size="14.00">onlyvans.finances.forms</text>
</g>
<!-- onlyvans.finances.migrations -->
<g id="node43" class="node">
<title>onlyvans.finances.migrations</title>
<polygon fill="none" stroke="black" points="5469,-36 5292.5,-36 5292.5,0 5469,0 5469,-36"/>
<text text-anchor="middle" x="5380.75" y="-12.57" font-family="Times New Roman,serif" font-size="14.00">onlyvans.finances.migrations</text>
</g>
<!-- onlyvans.finances.migrations.0001_initial -->
<g id="node44" class="node">
<title>onlyvans.finances.migrations.0001_initial</title>
<polygon fill="none" stroke="black" points="5730.38,-36 5487.12,-36 5487.12,0 5730.38,0 5730.38,-36"/>
<text text-anchor="middle" x="5608.75" y="-12.57" font-family="Times New Roman,serif" font-size="14.00">onlyvans.finances.migrations.0001_initial</text>
</g>
<!-- onlyvans.finances.tests -->
<g id="node46" class="node">
<title>onlyvans.finances.tests</title>
<polygon fill="none" stroke="black" points="5110.88,-36 4966.62,-36 4966.62,0 5110.88,0 5110.88,-36"/>
<text text-anchor="middle" x="5038.75" y="-12.57" font-family="Times New Roman,serif" font-size="14.00">onlyvans.finances.tests</text>
</g>
<!-- onlyvans.finances.tests&#45;&gt;onlyvans.finances.forms -->
<g id="edge22" class="edge">
<title>onlyvans.finances.tests&#45;&gt;onlyvans.finances.forms</title>
<path fill="none" stroke="black" d="M5038.75,-36.3C5038.75,-43.68 5038.75,-52.48 5038.75,-60.75"/>
<polygon fill="black" stroke="black" points="5038.75,-70.68 5034.25,-60.68 5038.75,-66.9 5038.75,-60.68 5038.75,-60.68 5038.75,-60.68 5038.75,-66.9 5043.25,-60.68 5038.75,-70.68"/>
</g>
<!-- onlyvans.finances.tests&#45;&gt;onlyvans.finances.models -->
<g id="edge23" class="edge">
<title>onlyvans.finances.tests&#45;&gt;onlyvans.finances.models</title>
<path fill="none" stroke="black" d="M4995.29,-36.48C4971.95,-45.87 4942.98,-57.53 4918.26,-67.47"/>
<polygon fill="black" stroke="black" points="4909.09,-71.16 4916.68,-63.26 4912.59,-69.75 4918.36,-67.43 4918.36,-67.43 4918.36,-67.43 4912.59,-69.75 4920.04,-71.61 4909.09,-71.16"/>
</g>
<!-- onlyvans.finances.urls -->
<g id="node47" class="node">
<title>onlyvans.finances.urls</title>
<polygon fill="none" stroke="black" points="5887.25,-36 5748.25,-36 5748.25,0 5887.25,0 5887.25,-36"/>
<text text-anchor="middle" x="5817.75" y="-12.57" font-family="Times New Roman,serif" font-size="14.00">onlyvans.finances.urls</text>
</g>
<!-- onlyvans.finances.views -->
<g id="node48" class="node">
<title>onlyvans.finances.views</title>
<polygon fill="none" stroke="black" points="4948.88,-36 4798.62,-36 4798.62,0 4948.88,0 4948.88,-36"/>
<text text-anchor="middle" x="4873.75" y="-12.57" font-family="Times New Roman,serif" font-size="14.00">onlyvans.finances.views</text>
</g>
<!-- onlyvans.finances.views&#45;&gt;onlyvans.finances.forms -->
<g id="edge24" class="edge">
<title>onlyvans.finances.views&#45;&gt;onlyvans.finances.forms</title>
<path fill="none" stroke="black" d="M4914.96,-36.48C4937,-45.83 4964.32,-57.43 4987.69,-67.34"/>
<polygon fill="black" stroke="black" points="4996.66,-71.14 4985.69,-71.38 4993.18,-69.67 4987.45,-67.24 4987.45,-67.24 4987.45,-67.24 4993.18,-69.67 4989.21,-63.09 4996.66,-71.14"/>
</g>
<!-- onlyvans.finances.views&#45;&gt;onlyvans.finances.models -->
<g id="edge25" class="edge">
<title>onlyvans.finances.views&#45;&gt;onlyvans.finances.models</title>
<path fill="none" stroke="black" d="M4871.53,-36.3C4870.57,-43.76 4869.42,-52.68 4868.35,-61.03"/>
<polygon fill="black" stroke="black" points="4867.1,-70.69 4863.92,-60.19 4867.59,-66.94 4868.38,-60.77 4868.38,-60.77 4868.38,-60.77 4867.59,-66.94 4872.84,-61.34 4867.1,-70.69"/>
</g>
<!-- onlyvans.interactions -->
<g id="node49" class="node">
<title>onlyvans.interactions</title>
<polygon fill="none" stroke="black" points="6038.25,-36 5905.25,-36 5905.25,0 6038.25,0 6038.25,-36"/>
<text text-anchor="middle" x="5971.75" y="-12.57" font-family="Times New Roman,serif" font-size="14.00">onlyvans.interactions</text>
</g>
<!-- onlyvans.interactions.admin -->
<g id="node50" class="node">
<title>onlyvans.interactions.admin</title>
<polygon fill="none" stroke="black" points="5925,-108 5754.5,-108 5754.5,-72 5925,-72 5925,-108"/>
<text text-anchor="middle" x="5839.75" y="-84.58" font-family="Times New Roman,serif" font-size="14.00">onlyvans.interactions.admin</text>
</g>
<!-- onlyvans.interactions.models -->
<g id="node56" class="node">
<title>onlyvans.interactions.models</title>
<polygon fill="none" stroke="black" points="6172.38,-180 5995.12,-180 5995.12,-144 6172.38,-144 6172.38,-180"/>
<text text-anchor="middle" x="6083.75" y="-156.57" font-family="Times New Roman,serif" font-size="14.00">onlyvans.interactions.models</text>
</g>
<!-- onlyvans.interactions.admin&#45;&gt;onlyvans.interactions.models -->
<g id="edge26" class="edge">
<title>onlyvans.interactions.admin&#45;&gt;onlyvans.interactions.models</title>
<path fill="none" stroke="black" d="M5900.69,-108.48C5934.59,-118.21 5976.96,-130.36 6012.4,-140.53"/>
<polygon fill="black" stroke="black" points="6021.99,-143.28 6011.14,-144.85 6018.36,-142.24 6012.38,-140.52 6012.38,-140.52 6012.38,-140.52 6018.36,-142.24 6013.62,-136.2 6021.99,-143.28"/>
</g>
<!-- onlyvans.interactions.apps -->
<g id="node51" class="node">
<title>onlyvans.interactions.apps</title>
<polygon fill="none" stroke="black" points="6611.62,-36 6447.88,-36 6447.88,0 6611.62,0 6611.62,-36"/>
<text text-anchor="middle" x="6529.75" y="-12.57" font-family="Times New Roman,serif" font-size="14.00">onlyvans.interactions.apps</text>
</g>
<!-- onlyvans.interactions.forms -->
<g id="node52" class="node">
<title>onlyvans.interactions.forms</title>
<polygon fill="none" stroke="black" points="6112.62,-108 5942.88,-108 5942.88,-72 6112.62,-72 6112.62,-108"/>
<text text-anchor="middle" x="6027.75" y="-84.58" font-family="Times New Roman,serif" font-size="14.00">onlyvans.interactions.forms</text>
</g>
<!-- onlyvans.interactions.forms&#45;&gt;onlyvans.interactions.models -->
<g id="edge27" class="edge">
<title>onlyvans.interactions.forms&#45;&gt;onlyvans.interactions.models</title>
<path fill="none" stroke="black" d="M6041.59,-108.3C6048.1,-116.44 6056,-126.31 6063.19,-135.3"/>
<polygon fill="black" stroke="black" points="6069.31,-142.94 6059.54,-137.95 6066.94,-139.99 6063.06,-135.14 6063.06,-135.14 6063.06,-135.14 6066.94,-139.99 6066.57,-132.32 6069.31,-142.94"/>
</g>
<!-- onlyvans.interactions.helpers -->
<g id="node53" class="node">
<title>onlyvans.interactions.helpers</title>
<polygon fill="none" stroke="black" points="6345,-108 6168.5,-108 6168.5,-72 6345,-72 6345,-108"/>
<text text-anchor="middle" x="6256.75" y="-84.58" font-family="Times New Roman,serif" font-size="14.00">onlyvans.interactions.helpers</text>
</g>
<!-- onlyvans.interactions.migrations -->
<g id="node54" class="node">
<title>onlyvans.interactions.migrations</title>
<polygon fill="none" stroke="black" points="6824,-36 6629.5,-36 6629.5,0 6824,0 6824,-36"/>
<text text-anchor="middle" x="6726.75" y="-12.57" font-family="Times New Roman,serif" font-size="14.00">onlyvans.interactions.migrations</text>
</g>
<!-- onlyvans.interactions.migrations.0001_initial -->
<g id="node55" class="node">
<title>onlyvans.interactions.migrations.0001_initial</title>
<polygon fill="none" stroke="black" points="7103.38,-36 6842.12,-36 6842.12,0 7103.38,0 7103.38,-36"/>
<text text-anchor="middle" x="6972.75" y="-12.57" font-family="Times New Roman,serif" font-size="14.00">onlyvans.interactions.migrations.0001_initial</text>
</g>
<!-- onlyvans.interactions.tests -->
<g id="node57" class="node">
<title>onlyvans.interactions.tests</title>
<polygon fill="none" stroke="black" points="6429.88,-36 6267.62,-36 6267.62,0 6429.88,0 6429.88,-36"/>
<text text-anchor="middle" x="6348.75" y="-12.57" font-family="Times New Roman,serif" font-size="14.00">onlyvans.interactions.tests</text>
</g>
<!-- onlyvans.interactions.tests&#45;&gt;onlyvans.interactions.helpers -->
<g id="edge28" class="edge">
<title>onlyvans.interactions.tests&#45;&gt;onlyvans.interactions.helpers</title>
<path fill="none" stroke="black" d="M6326.01,-36.3C6314.62,-44.97 6300.65,-55.6 6288.24,-65.04"/>
<polygon fill="black" stroke="black" points="6280.52,-70.92 6285.75,-61.28 6283.53,-68.63 6288.48,-64.86 6288.48,-64.86 6288.48,-64.86 6283.53,-68.63 6291.2,-68.44 6280.52,-70.92"/>
</g>
<!-- onlyvans.interactions.tests&#45;&gt;onlyvans.interactions.models -->
<g id="edge29" class="edge">
<title>onlyvans.interactions.tests&#45;&gt;onlyvans.interactions.models</title>
<path fill="none" stroke="black" d="M6355.97,-36.2C6362.95,-55.87 6370.27,-87.92 6353.75,-108 6332.19,-134.21 6251.38,-147.65 6183.74,-154.42"/>
<polygon fill="black" stroke="black" points="6173.79,-155.38 6183.32,-149.94 6177.56,-155.02 6183.75,-154.42 6183.75,-154.42 6183.75,-154.42 6177.56,-155.02 6184.18,-158.9 6173.79,-155.38"/>
</g>
<!-- onlyvans.interactions.urls -->
<g id="node58" class="node">
<title>onlyvans.interactions.urls</title>
<polygon fill="none" stroke="black" points="7278.25,-36 7121.25,-36 7121.25,0 7278.25,0 7278.25,-36"/>
<text text-anchor="middle" x="7199.75" y="-12.57" font-family="Times New Roman,serif" font-size="14.00">onlyvans.interactions.urls</text>
</g>
<!-- onlyvans.interactions.views -->
<g id="node59" class="node">
<title>onlyvans.interactions.views</title>
<polygon fill="none" stroke="black" points="6224.88,-36 6056.62,-36 6056.62,0 6224.88,0 6224.88,-36"/>
<text text-anchor="middle" x="6140.75" y="-12.57" font-family="Times New Roman,serif" font-size="14.00">onlyvans.interactions.views</text>
</g>
<!-- onlyvans.interactions.views&#45;&gt;onlyvans.interactions.forms -->
<g id="edge30" class="edge">
<title>onlyvans.interactions.views&#45;&gt;onlyvans.interactions.forms</title>
<path fill="none" stroke="black" d="M6112.53,-36.48C6098.13,-45.4 6080.43,-56.37 6064.93,-65.97"/>
<polygon fill="black" stroke="black" points="6056.65,-71.1 6062.78,-62.01 6059.86,-69.11 6065.15,-65.83 6065.15,-65.83 6065.15,-65.83 6059.86,-69.11 6067.52,-69.66 6056.65,-71.1"/>
</g>
<!-- onlyvans.interactions.views&#45;&gt;onlyvans.interactions.helpers -->
<g id="edge31" class="edge">
<title>onlyvans.interactions.views&#45;&gt;onlyvans.interactions.helpers</title>
<path fill="none" stroke="black" d="M6169.72,-36.48C6184.5,-45.4 6202.68,-56.37 6218.58,-65.97"/>
<polygon fill="black" stroke="black" points="6227.1,-71.11 6216.22,-69.8 6223.87,-69.16 6218.54,-65.94 6218.54,-65.94 6218.54,-65.94 6223.87,-69.16 6220.87,-62.09 6227.1,-71.11"/>
</g>
<!-- onlyvans.interactions.views&#45;&gt;onlyvans.interactions.models -->
<g id="edge32" class="edge">
<title>onlyvans.interactions.views&#45;&gt;onlyvans.interactions.models</title>
<path fill="none" stroke="black" d="M6139.17,-36.38C6137.02,-54.8 6132.16,-84.45 6121.75,-108 6117.63,-117.33 6111.7,-126.66 6105.75,-134.83"/>
<polygon fill="black" stroke="black" points="6099.85,-142.53 6102.36,-131.86 6102.15,-139.53 6105.93,-134.59 6105.93,-134.59 6105.93,-134.59 6102.15,-139.53 6109.5,-137.32 6099.85,-142.53"/>
</g>
<!-- onlyvans.manage -->
<g id="node60" class="node">
<title>onlyvans.manage</title>
<polygon fill="none" stroke="black" points="7407.38,-36 7296.12,-36 7296.12,0 7407.38,0 7407.38,-36"/>
<text text-anchor="middle" x="7351.75" y="-12.57" font-family="Times New Roman,serif" font-size="14.00">onlyvans.manage</text>
</g>
<!-- onlyvans.onlyvans -->
<g id="node61" class="node">
<title>onlyvans.onlyvans</title>
<polygon fill="none" stroke="black" points="7544.12,-36 7425.38,-36 7425.38,0 7544.12,0 7544.12,-36"/>
<text text-anchor="middle" x="7484.75" y="-12.57" font-family="Times New Roman,serif" font-size="14.00">onlyvans.onlyvans</text>
</g>
<!-- onlyvans.onlyvans.asgi -->
<g id="node62" class="node">
<title>onlyvans.onlyvans.asgi</title>
<polygon fill="none" stroke="black" points="7706.88,-36 7562.62,-36 7562.62,0 7706.88,0 7706.88,-36"/>
<text text-anchor="middle" x="7634.75" y="-12.57" font-family="Times New Roman,serif" font-size="14.00">onlyvans.onlyvans.asgi</text>
</g>
<!-- onlyvans.onlyvans.settings -->
<g id="node63" class="node">
<title>onlyvans.onlyvans.settings</title>
<polygon fill="none" stroke="black" points="7889,-36 7724.5,-36 7724.5,0 7889,0 7889,-36"/>
<text text-anchor="middle" x="7806.75" y="-12.57" font-family="Times New Roman,serif" font-size="14.00">onlyvans.onlyvans.settings</text>
</g>
<!-- onlyvans.onlyvans.urls -->
<g id="node64" class="node">
<title>onlyvans.onlyvans.urls</title>
<polygon fill="none" stroke="black" points="8050.12,-36 7907.38,-36 7907.38,0 8050.12,0 8050.12,-36"/>
<text text-anchor="middle" x="7978.75" y="-12.57" font-family="Times New Roman,serif" font-size="14.00">onlyvans.onlyvans.urls</text>
</g>
<!-- onlyvans.onlyvans.wsgi -->
<g id="node65" class="node">
<title>onlyvans.onlyvans.wsgi</title>
<polygon fill="none" stroke="black" points="8215.75,-36 8067.75,-36 8067.75,0 8215.75,0 8215.75,-36"/>
<text text-anchor="middle" x="8141.75" y="-12.57" font-family="Times New Roman,serif" font-size="14.00">onlyvans.onlyvans.wsgi</text>
</g>
</g>
</svg>
